<?xml version="1.0" encoding="utf-8" standalone="no"?>
<!DOCTYPE svg PUBLIC "-//W3C//DTD SVG 1.1//EN"
  "http://www.w3.org/Graphics/SVG/1.1/DTD/svg11.dtd">
<!-- Created with matplotlib (https://matplotlib.org/) -->
<svg height="331.674375pt" version="1.1" viewBox="0 0 940.603125 331.674375" width="940.603125pt" xmlns="http://www.w3.org/2000/svg" xmlns:xlink="http://www.w3.org/1999/xlink">
 <metadata>
  <rdf:RDF xmlns:cc="http://creativecommons.org/ns#" xmlns:dc="http://purl.org/dc/elements/1.1/" xmlns:rdf="http://www.w3.org/1999/02/22-rdf-syntax-ns#">
   <cc:Work>
    <dc:type rdf:resource="http://purl.org/dc/dcmitype/StillImage"/>
    <dc:date>2021-04-21T11:08:21.867861</dc:date>
    <dc:format>image/svg+xml</dc:format>
    <dc:creator>
     <cc:Agent>
      <dc:title>Matplotlib v3.3.4, https://matplotlib.org/</dc:title>
     </cc:Agent>
    </dc:creator>
   </cc:Work>
  </rdf:RDF>
 </metadata>
 <defs>
  <style type="text/css">*{stroke-linecap:butt;stroke-linejoin:round;}</style>
 </defs>
 <g id="figure_1">
  <g id="patch_1">
   <path d="M 0 331.674375 
L 940.603125 331.674375 
L 940.603125 0 
L 0 0 
z
" style="fill:none;"/>
  </g>
  <g id="axes_1">
   <g id="patch_2">
    <path d="M 40.603125 294.118125 
L 303.19136 294.118125 
L 303.19136 22.318125 
L 40.603125 22.318125 
z
" style="fill:#ffffff;"/>
   </g>
   <g id="matplotlib.axis_1">
    <g id="xtick_1">
     <g id="line2d_1">
      <defs>
       <path d="M 0 0 
L 0 3.5 
" id="m538376f62b" style="stroke:#000000;stroke-width:0.8;"/>
      </defs>
      <g>
       <use style="stroke:#000000;stroke-width:0.8;" x="52.538954" xlink:href="#m538376f62b" y="294.118125"/>
      </g>
     </g>
     <g id="text_1">
      <!-- 0 -->
      <g transform="translate(49.357704 308.716563)scale(0.1 -0.1)">
       <defs>
        <path d="M 31.78125 66.40625 
Q 24.171875 66.40625 20.328125 58.90625 
Q 16.5 51.421875 16.5 36.375 
Q 16.5 21.390625 20.328125 13.890625 
Q 24.171875 6.390625 31.78125 6.390625 
Q 39.453125 6.390625 43.28125 13.890625 
Q 47.125 21.390625 47.125 36.375 
Q 47.125 51.421875 43.28125 58.90625 
Q 39.453125 66.40625 31.78125 66.40625 
z
M 31.78125 74.21875 
Q 44.046875 74.21875 50.515625 64.515625 
Q 56.984375 54.828125 56.984375 36.375 
Q 56.984375 17.96875 50.515625 8.265625 
Q 44.046875 -1.421875 31.78125 -1.421875 
Q 19.53125 -1.421875 13.0625 8.265625 
Q 6.59375 17.96875 6.59375 36.375 
Q 6.59375 54.828125 13.0625 64.515625 
Q 19.53125 74.21875 31.78125 74.21875 
z
" id="DejaVuSans-48"/>
       </defs>
       <use xlink:href="#DejaVuSans-48"/>
      </g>
     </g>
    </g>
    <g id="xtick_2">
     <g id="line2d_2">
      <g>
       <use style="stroke:#000000;stroke-width:0.8;" x="97.158875" xlink:href="#m538376f62b" y="294.118125"/>
      </g>
     </g>
     <g id="text_2">
      <!-- 20 -->
      <g transform="translate(90.796375 308.716563)scale(0.1 -0.1)">
       <defs>
        <path d="M 19.1875 8.296875 
L 53.609375 8.296875 
L 53.609375 0 
L 7.328125 0 
L 7.328125 8.296875 
Q 12.9375 14.109375 22.625 23.890625 
Q 32.328125 33.6875 34.8125 36.53125 
Q 39.546875 41.84375 41.421875 45.53125 
Q 43.3125 49.21875 43.3125 52.78125 
Q 43.3125 58.59375 39.234375 62.25 
Q 35.15625 65.921875 28.609375 65.921875 
Q 23.96875 65.921875 18.8125 64.3125 
Q 13.671875 62.703125 7.8125 59.421875 
L 7.8125 69.390625 
Q 13.765625 71.78125 18.9375 73 
Q 24.125 74.21875 28.421875 74.21875 
Q 39.75 74.21875 46.484375 68.546875 
Q 53.21875 62.890625 53.21875 53.421875 
Q 53.21875 48.921875 51.53125 44.890625 
Q 49.859375 40.875 45.40625 35.40625 
Q 44.1875 33.984375 37.640625 27.21875 
Q 31.109375 20.453125 19.1875 8.296875 
z
" id="DejaVuSans-50"/>
       </defs>
       <use xlink:href="#DejaVuSans-50"/>
       <use x="63.623047" xlink:href="#DejaVuSans-48"/>
      </g>
     </g>
    </g>
    <g id="xtick_3">
     <g id="line2d_3">
      <g>
       <use style="stroke:#000000;stroke-width:0.8;" x="141.778796" xlink:href="#m538376f62b" y="294.118125"/>
      </g>
     </g>
     <g id="text_3">
      <!-- 40 -->
      <g transform="translate(135.416296 308.716563)scale(0.1 -0.1)">
       <defs>
        <path d="M 37.796875 64.3125 
L 12.890625 25.390625 
L 37.796875 25.390625 
z
M 35.203125 72.90625 
L 47.609375 72.90625 
L 47.609375 25.390625 
L 58.015625 25.390625 
L 58.015625 17.1875 
L 47.609375 17.1875 
L 47.609375 0 
L 37.796875 0 
L 37.796875 17.1875 
L 4.890625 17.1875 
L 4.890625 26.703125 
z
" id="DejaVuSans-52"/>
       </defs>
       <use xlink:href="#DejaVuSans-52"/>
       <use x="63.623047" xlink:href="#DejaVuSans-48"/>
      </g>
     </g>
    </g>
    <g id="xtick_4">
     <g id="line2d_4">
      <g>
       <use style="stroke:#000000;stroke-width:0.8;" x="186.398717" xlink:href="#m538376f62b" y="294.118125"/>
      </g>
     </g>
     <g id="text_4">
      <!-- 60 -->
      <g transform="translate(180.036217 308.716563)scale(0.1 -0.1)">
       <defs>
        <path d="M 33.015625 40.375 
Q 26.375 40.375 22.484375 35.828125 
Q 18.609375 31.296875 18.609375 23.390625 
Q 18.609375 15.53125 22.484375 10.953125 
Q 26.375 6.390625 33.015625 6.390625 
Q 39.65625 6.390625 43.53125 10.953125 
Q 47.40625 15.53125 47.40625 23.390625 
Q 47.40625 31.296875 43.53125 35.828125 
Q 39.65625 40.375 33.015625 40.375 
z
M 52.59375 71.296875 
L 52.59375 62.3125 
Q 48.875 64.0625 45.09375 64.984375 
Q 41.3125 65.921875 37.59375 65.921875 
Q 27.828125 65.921875 22.671875 59.328125 
Q 17.53125 52.734375 16.796875 39.40625 
Q 19.671875 43.65625 24.015625 45.921875 
Q 28.375 48.1875 33.59375 48.1875 
Q 44.578125 48.1875 50.953125 41.515625 
Q 57.328125 34.859375 57.328125 23.390625 
Q 57.328125 12.15625 50.6875 5.359375 
Q 44.046875 -1.421875 33.015625 -1.421875 
Q 20.359375 -1.421875 13.671875 8.265625 
Q 6.984375 17.96875 6.984375 36.375 
Q 6.984375 53.65625 15.1875 63.9375 
Q 23.390625 74.21875 37.203125 74.21875 
Q 40.921875 74.21875 44.703125 73.484375 
Q 48.484375 72.75 52.59375 71.296875 
z
" id="DejaVuSans-54"/>
       </defs>
       <use xlink:href="#DejaVuSans-54"/>
       <use x="63.623047" xlink:href="#DejaVuSans-48"/>
      </g>
     </g>
    </g>
    <g id="xtick_5">
     <g id="line2d_5">
      <g>
       <use style="stroke:#000000;stroke-width:0.8;" x="231.018638" xlink:href="#m538376f62b" y="294.118125"/>
      </g>
     </g>
     <g id="text_5">
      <!-- 80 -->
      <g transform="translate(224.656138 308.716563)scale(0.1 -0.1)">
       <defs>
        <path d="M 31.78125 34.625 
Q 24.75 34.625 20.71875 30.859375 
Q 16.703125 27.09375 16.703125 20.515625 
Q 16.703125 13.921875 20.71875 10.15625 
Q 24.75 6.390625 31.78125 6.390625 
Q 38.8125 6.390625 42.859375 10.171875 
Q 46.921875 13.96875 46.921875 20.515625 
Q 46.921875 27.09375 42.890625 30.859375 
Q 38.875 34.625 31.78125 34.625 
z
M 21.921875 38.8125 
Q 15.578125 40.375 12.03125 44.71875 
Q 8.5 49.078125 8.5 55.328125 
Q 8.5 64.0625 14.71875 69.140625 
Q 20.953125 74.21875 31.78125 74.21875 
Q 42.671875 74.21875 48.875 69.140625 
Q 55.078125 64.0625 55.078125 55.328125 
Q 55.078125 49.078125 51.53125 44.71875 
Q 48 40.375 41.703125 38.8125 
Q 48.828125 37.15625 52.796875 32.3125 
Q 56.78125 27.484375 56.78125 20.515625 
Q 56.78125 9.90625 50.3125 4.234375 
Q 43.84375 -1.421875 31.78125 -1.421875 
Q 19.734375 -1.421875 13.25 4.234375 
Q 6.78125 9.90625 6.78125 20.515625 
Q 6.78125 27.484375 10.78125 32.3125 
Q 14.796875 37.15625 21.921875 38.8125 
z
M 18.3125 54.390625 
Q 18.3125 48.734375 21.84375 45.5625 
Q 25.390625 42.390625 31.78125 42.390625 
Q 38.140625 42.390625 41.71875 45.5625 
Q 45.3125 48.734375 45.3125 54.390625 
Q 45.3125 60.0625 41.71875 63.234375 
Q 38.140625 66.40625 31.78125 66.40625 
Q 25.390625 66.40625 21.84375 63.234375 
Q 18.3125 60.0625 18.3125 54.390625 
z
" id="DejaVuSans-56"/>
       </defs>
       <use xlink:href="#DejaVuSans-56"/>
       <use x="63.623047" xlink:href="#DejaVuSans-48"/>
      </g>
     </g>
    </g>
    <g id="xtick_6">
     <g id="line2d_6">
      <g>
       <use style="stroke:#000000;stroke-width:0.8;" x="275.638559" xlink:href="#m538376f62b" y="294.118125"/>
      </g>
     </g>
     <g id="text_6">
      <!-- 100 -->
      <g transform="translate(266.094809 308.716563)scale(0.1 -0.1)">
       <defs>
        <path d="M 12.40625 8.296875 
L 28.515625 8.296875 
L 28.515625 63.921875 
L 10.984375 60.40625 
L 10.984375 69.390625 
L 28.421875 72.90625 
L 38.28125 72.90625 
L 38.28125 8.296875 
L 54.390625 8.296875 
L 54.390625 0 
L 12.40625 0 
z
" id="DejaVuSans-49"/>
       </defs>
       <use xlink:href="#DejaVuSans-49"/>
       <use x="63.623047" xlink:href="#DejaVuSans-48"/>
       <use x="127.246094" xlink:href="#DejaVuSans-48"/>
      </g>
     </g>
    </g>
    <g id="text_7">
     <!-- Epochen -->
     <g transform="translate(150.340993 322.394687)scale(0.1 -0.1)">
      <defs>
       <path d="M 9.8125 72.90625 
L 55.90625 72.90625 
L 55.90625 64.59375 
L 19.671875 64.59375 
L 19.671875 43.015625 
L 54.390625 43.015625 
L 54.390625 34.71875 
L 19.671875 34.71875 
L 19.671875 8.296875 
L 56.78125 8.296875 
L 56.78125 0 
L 9.8125 0 
z
" id="DejaVuSans-69"/>
       <path d="M 18.109375 8.203125 
L 18.109375 -20.796875 
L 9.078125 -20.796875 
L 9.078125 54.6875 
L 18.109375 54.6875 
L 18.109375 46.390625 
Q 20.953125 51.265625 25.265625 53.625 
Q 29.59375 56 35.59375 56 
Q 45.5625 56 51.78125 48.09375 
Q 58.015625 40.1875 58.015625 27.296875 
Q 58.015625 14.40625 51.78125 6.484375 
Q 45.5625 -1.421875 35.59375 -1.421875 
Q 29.59375 -1.421875 25.265625 0.953125 
Q 20.953125 3.328125 18.109375 8.203125 
z
M 48.6875 27.296875 
Q 48.6875 37.203125 44.609375 42.84375 
Q 40.53125 48.484375 33.40625 48.484375 
Q 26.265625 48.484375 22.1875 42.84375 
Q 18.109375 37.203125 18.109375 27.296875 
Q 18.109375 17.390625 22.1875 11.75 
Q 26.265625 6.109375 33.40625 6.109375 
Q 40.53125 6.109375 44.609375 11.75 
Q 48.6875 17.390625 48.6875 27.296875 
z
" id="DejaVuSans-112"/>
       <path d="M 30.609375 48.390625 
Q 23.390625 48.390625 19.1875 42.75 
Q 14.984375 37.109375 14.984375 27.296875 
Q 14.984375 17.484375 19.15625 11.84375 
Q 23.34375 6.203125 30.609375 6.203125 
Q 37.796875 6.203125 41.984375 11.859375 
Q 46.1875 17.53125 46.1875 27.296875 
Q 46.1875 37.015625 41.984375 42.703125 
Q 37.796875 48.390625 30.609375 48.390625 
z
M 30.609375 56 
Q 42.328125 56 49.015625 48.375 
Q 55.71875 40.765625 55.71875 27.296875 
Q 55.71875 13.875 49.015625 6.21875 
Q 42.328125 -1.421875 30.609375 -1.421875 
Q 18.84375 -1.421875 12.171875 6.21875 
Q 5.515625 13.875 5.515625 27.296875 
Q 5.515625 40.765625 12.171875 48.375 
Q 18.84375 56 30.609375 56 
z
" id="DejaVuSans-111"/>
       <path d="M 48.78125 52.59375 
L 48.78125 44.1875 
Q 44.96875 46.296875 41.140625 47.34375 
Q 37.3125 48.390625 33.40625 48.390625 
Q 24.65625 48.390625 19.8125 42.84375 
Q 14.984375 37.3125 14.984375 27.296875 
Q 14.984375 17.28125 19.8125 11.734375 
Q 24.65625 6.203125 33.40625 6.203125 
Q 37.3125 6.203125 41.140625 7.25 
Q 44.96875 8.296875 48.78125 10.40625 
L 48.78125 2.09375 
Q 45.015625 0.34375 40.984375 -0.53125 
Q 36.96875 -1.421875 32.421875 -1.421875 
Q 20.0625 -1.421875 12.78125 6.34375 
Q 5.515625 14.109375 5.515625 27.296875 
Q 5.515625 40.671875 12.859375 48.328125 
Q 20.21875 56 33.015625 56 
Q 37.15625 56 41.109375 55.140625 
Q 45.0625 54.296875 48.78125 52.59375 
z
" id="DejaVuSans-99"/>
       <path d="M 54.890625 33.015625 
L 54.890625 0 
L 45.90625 0 
L 45.90625 32.71875 
Q 45.90625 40.484375 42.875 44.328125 
Q 39.84375 48.1875 33.796875 48.1875 
Q 26.515625 48.1875 22.3125 43.546875 
Q 18.109375 38.921875 18.109375 30.90625 
L 18.109375 0 
L 9.078125 0 
L 9.078125 75.984375 
L 18.109375 75.984375 
L 18.109375 46.1875 
Q 21.34375 51.125 25.703125 53.5625 
Q 30.078125 56 35.796875 56 
Q 45.21875 56 50.046875 50.171875 
Q 54.890625 44.34375 54.890625 33.015625 
z
" id="DejaVuSans-104"/>
       <path d="M 56.203125 29.59375 
L 56.203125 25.203125 
L 14.890625 25.203125 
Q 15.484375 15.921875 20.484375 11.0625 
Q 25.484375 6.203125 34.421875 6.203125 
Q 39.59375 6.203125 44.453125 7.46875 
Q 49.3125 8.734375 54.109375 11.28125 
L 54.109375 2.78125 
Q 49.265625 0.734375 44.1875 -0.34375 
Q 39.109375 -1.421875 33.890625 -1.421875 
Q 20.796875 -1.421875 13.15625 6.1875 
Q 5.515625 13.8125 5.515625 26.8125 
Q 5.515625 40.234375 12.765625 48.109375 
Q 20.015625 56 32.328125 56 
Q 43.359375 56 49.78125 48.890625 
Q 56.203125 41.796875 56.203125 29.59375 
z
M 47.21875 32.234375 
Q 47.125 39.59375 43.09375 43.984375 
Q 39.0625 48.390625 32.421875 48.390625 
Q 24.90625 48.390625 20.390625 44.140625 
Q 15.875 39.890625 15.1875 32.171875 
z
" id="DejaVuSans-101"/>
       <path d="M 54.890625 33.015625 
L 54.890625 0 
L 45.90625 0 
L 45.90625 32.71875 
Q 45.90625 40.484375 42.875 44.328125 
Q 39.84375 48.1875 33.796875 48.1875 
Q 26.515625 48.1875 22.3125 43.546875 
Q 18.109375 38.921875 18.109375 30.90625 
L 18.109375 0 
L 9.078125 0 
L 9.078125 54.6875 
L 18.109375 54.6875 
L 18.109375 46.1875 
Q 21.34375 51.125 25.703125 53.5625 
Q 30.078125 56 35.796875 56 
Q 45.21875 56 50.046875 50.171875 
Q 54.890625 44.34375 54.890625 33.015625 
z
" id="DejaVuSans-110"/>
      </defs>
      <use xlink:href="#DejaVuSans-69"/>
      <use x="63.183594" xlink:href="#DejaVuSans-112"/>
      <use x="126.660156" xlink:href="#DejaVuSans-111"/>
      <use x="187.841797" xlink:href="#DejaVuSans-99"/>
      <use x="242.822266" xlink:href="#DejaVuSans-104"/>
      <use x="306.201172" xlink:href="#DejaVuSans-101"/>
      <use x="367.724609" xlink:href="#DejaVuSans-110"/>
     </g>
    </g>
   </g>
   <g id="matplotlib.axis_2">
    <g id="ytick_1">
     <g id="line2d_7">
      <defs>
       <path d="M 0 0 
L -3.5 0 
" id="me98b71f6d7" style="stroke:#000000;stroke-width:0.8;"/>
      </defs>
      <g>
       <use style="stroke:#000000;stroke-width:0.8;" x="40.603125" xlink:href="#me98b71f6d7" y="294.118125"/>
      </g>
     </g>
     <g id="text_8">
      <!-- 0 -->
      <g transform="translate(27.240625 297.917344)scale(0.1 -0.1)">
       <use xlink:href="#DejaVuSans-48"/>
      </g>
     </g>
    </g>
    <g id="ytick_2">
     <g id="line2d_8">
      <g>
       <use style="stroke:#000000;stroke-width:0.8;" x="40.603125" xlink:href="#me98b71f6d7" y="239.758125"/>
      </g>
     </g>
     <g id="text_9">
      <!-- 10 -->
      <g transform="translate(20.878125 243.557344)scale(0.1 -0.1)">
       <use xlink:href="#DejaVuSans-49"/>
       <use x="63.623047" xlink:href="#DejaVuSans-48"/>
      </g>
     </g>
    </g>
    <g id="ytick_3">
     <g id="line2d_9">
      <g>
       <use style="stroke:#000000;stroke-width:0.8;" x="40.603125" xlink:href="#me98b71f6d7" y="185.398125"/>
      </g>
     </g>
     <g id="text_10">
      <!-- 20 -->
      <g transform="translate(20.878125 189.197344)scale(0.1 -0.1)">
       <use xlink:href="#DejaVuSans-50"/>
       <use x="63.623047" xlink:href="#DejaVuSans-48"/>
      </g>
     </g>
    </g>
    <g id="ytick_4">
     <g id="line2d_10">
      <g>
       <use style="stroke:#000000;stroke-width:0.8;" x="40.603125" xlink:href="#me98b71f6d7" y="131.038125"/>
      </g>
     </g>
     <g id="text_11">
      <!-- 30 -->
      <g transform="translate(20.878125 134.837344)scale(0.1 -0.1)">
       <defs>
        <path d="M 40.578125 39.3125 
Q 47.65625 37.796875 51.625 33 
Q 55.609375 28.21875 55.609375 21.1875 
Q 55.609375 10.40625 48.1875 4.484375 
Q 40.765625 -1.421875 27.09375 -1.421875 
Q 22.515625 -1.421875 17.65625 -0.515625 
Q 12.796875 0.390625 7.625 2.203125 
L 7.625 11.71875 
Q 11.71875 9.328125 16.59375 8.109375 
Q 21.484375 6.890625 26.8125 6.890625 
Q 36.078125 6.890625 40.9375 10.546875 
Q 45.796875 14.203125 45.796875 21.1875 
Q 45.796875 27.640625 41.28125 31.265625 
Q 36.765625 34.90625 28.71875 34.90625 
L 20.21875 34.90625 
L 20.21875 43.015625 
L 29.109375 43.015625 
Q 36.375 43.015625 40.234375 45.921875 
Q 44.09375 48.828125 44.09375 54.296875 
Q 44.09375 59.90625 40.109375 62.90625 
Q 36.140625 65.921875 28.71875 65.921875 
Q 24.65625 65.921875 20.015625 65.03125 
Q 15.375 64.15625 9.8125 62.3125 
L 9.8125 71.09375 
Q 15.4375 72.65625 20.34375 73.4375 
Q 25.25 74.21875 29.59375 74.21875 
Q 40.828125 74.21875 47.359375 69.109375 
Q 53.90625 64.015625 53.90625 55.328125 
Q 53.90625 49.265625 50.4375 45.09375 
Q 46.96875 40.921875 40.578125 39.3125 
z
" id="DejaVuSans-51"/>
       </defs>
       <use xlink:href="#DejaVuSans-51"/>
       <use x="63.623047" xlink:href="#DejaVuSans-48"/>
      </g>
     </g>
    </g>
    <g id="ytick_5">
     <g id="line2d_11">
      <g>
       <use style="stroke:#000000;stroke-width:0.8;" x="40.603125" xlink:href="#me98b71f6d7" y="76.678125"/>
      </g>
     </g>
     <g id="text_12">
      <!-- 40 -->
      <g transform="translate(20.878125 80.477344)scale(0.1 -0.1)">
       <use xlink:href="#DejaVuSans-52"/>
       <use x="63.623047" xlink:href="#DejaVuSans-48"/>
      </g>
     </g>
    </g>
    <g id="ytick_6">
     <g id="line2d_12">
      <g>
       <use style="stroke:#000000;stroke-width:0.8;" x="40.603125" xlink:href="#me98b71f6d7" y="22.318125"/>
      </g>
     </g>
     <g id="text_13">
      <!-- 50 -->
      <g transform="translate(20.878125 26.117344)scale(0.1 -0.1)">
       <defs>
        <path d="M 10.796875 72.90625 
L 49.515625 72.90625 
L 49.515625 64.59375 
L 19.828125 64.59375 
L 19.828125 46.734375 
Q 21.96875 47.46875 24.109375 47.828125 
Q 26.265625 48.1875 28.421875 48.1875 
Q 40.625 48.1875 47.75 41.5 
Q 54.890625 34.8125 54.890625 23.390625 
Q 54.890625 11.625 47.5625 5.09375 
Q 40.234375 -1.421875 26.90625 -1.421875 
Q 22.3125 -1.421875 17.546875 -0.640625 
Q 12.796875 0.140625 7.71875 1.703125 
L 7.71875 11.625 
Q 12.109375 9.234375 16.796875 8.0625 
Q 21.484375 6.890625 26.703125 6.890625 
Q 35.15625 6.890625 40.078125 11.328125 
Q 45.015625 15.765625 45.015625 23.390625 
Q 45.015625 31 40.078125 35.4375 
Q 35.15625 39.890625 26.703125 39.890625 
Q 22.75 39.890625 18.8125 39.015625 
Q 14.890625 38.140625 10.796875 36.28125 
z
" id="DejaVuSans-53"/>
       </defs>
       <use xlink:href="#DejaVuSans-53"/>
       <use x="63.623047" xlink:href="#DejaVuSans-48"/>
      </g>
     </g>
    </g>
    <g id="text_14">
     <!-- Genauigkeit -->
     <g transform="translate(14.798438 188.273594)rotate(-90)scale(0.1 -0.1)">
      <defs>
       <path d="M 59.515625 10.40625 
L 59.515625 29.984375 
L 43.40625 29.984375 
L 43.40625 38.09375 
L 69.28125 38.09375 
L 69.28125 6.78125 
Q 63.578125 2.734375 56.6875 0.65625 
Q 49.8125 -1.421875 42 -1.421875 
Q 24.90625 -1.421875 15.25 8.5625 
Q 5.609375 18.5625 5.609375 36.375 
Q 5.609375 54.25 15.25 64.234375 
Q 24.90625 74.21875 42 74.21875 
Q 49.125 74.21875 55.546875 72.453125 
Q 61.96875 70.703125 67.390625 67.28125 
L 67.390625 56.78125 
Q 61.921875 61.421875 55.765625 63.765625 
Q 49.609375 66.109375 42.828125 66.109375 
Q 29.4375 66.109375 22.71875 58.640625 
Q 16.015625 51.171875 16.015625 36.375 
Q 16.015625 21.625 22.71875 14.15625 
Q 29.4375 6.6875 42.828125 6.6875 
Q 48.046875 6.6875 52.140625 7.59375 
Q 56.25 8.5 59.515625 10.40625 
z
" id="DejaVuSans-71"/>
       <path d="M 34.28125 27.484375 
Q 23.390625 27.484375 19.1875 25 
Q 14.984375 22.515625 14.984375 16.5 
Q 14.984375 11.71875 18.140625 8.90625 
Q 21.296875 6.109375 26.703125 6.109375 
Q 34.1875 6.109375 38.703125 11.40625 
Q 43.21875 16.703125 43.21875 25.484375 
L 43.21875 27.484375 
z
M 52.203125 31.203125 
L 52.203125 0 
L 43.21875 0 
L 43.21875 8.296875 
Q 40.140625 3.328125 35.546875 0.953125 
Q 30.953125 -1.421875 24.3125 -1.421875 
Q 15.921875 -1.421875 10.953125 3.296875 
Q 6 8.015625 6 15.921875 
Q 6 25.140625 12.171875 29.828125 
Q 18.359375 34.515625 30.609375 34.515625 
L 43.21875 34.515625 
L 43.21875 35.40625 
Q 43.21875 41.609375 39.140625 45 
Q 35.0625 48.390625 27.6875 48.390625 
Q 23 48.390625 18.546875 47.265625 
Q 14.109375 46.140625 10.015625 43.890625 
L 10.015625 52.203125 
Q 14.9375 54.109375 19.578125 55.046875 
Q 24.21875 56 28.609375 56 
Q 40.484375 56 46.34375 49.84375 
Q 52.203125 43.703125 52.203125 31.203125 
z
" id="DejaVuSans-97"/>
       <path d="M 8.5 21.578125 
L 8.5 54.6875 
L 17.484375 54.6875 
L 17.484375 21.921875 
Q 17.484375 14.15625 20.5 10.265625 
Q 23.53125 6.390625 29.59375 6.390625 
Q 36.859375 6.390625 41.078125 11.03125 
Q 45.3125 15.671875 45.3125 23.6875 
L 45.3125 54.6875 
L 54.296875 54.6875 
L 54.296875 0 
L 45.3125 0 
L 45.3125 8.40625 
Q 42.046875 3.421875 37.71875 1 
Q 33.40625 -1.421875 27.6875 -1.421875 
Q 18.265625 -1.421875 13.375 4.4375 
Q 8.5 10.296875 8.5 21.578125 
z
M 31.109375 56 
z
" id="DejaVuSans-117"/>
       <path d="M 9.421875 54.6875 
L 18.40625 54.6875 
L 18.40625 0 
L 9.421875 0 
z
M 9.421875 75.984375 
L 18.40625 75.984375 
L 18.40625 64.59375 
L 9.421875 64.59375 
z
" id="DejaVuSans-105"/>
       <path d="M 45.40625 27.984375 
Q 45.40625 37.75 41.375 43.109375 
Q 37.359375 48.484375 30.078125 48.484375 
Q 22.859375 48.484375 18.828125 43.109375 
Q 14.796875 37.75 14.796875 27.984375 
Q 14.796875 18.265625 18.828125 12.890625 
Q 22.859375 7.515625 30.078125 7.515625 
Q 37.359375 7.515625 41.375 12.890625 
Q 45.40625 18.265625 45.40625 27.984375 
z
M 54.390625 6.78125 
Q 54.390625 -7.171875 48.1875 -13.984375 
Q 42 -20.796875 29.203125 -20.796875 
Q 24.46875 -20.796875 20.265625 -20.09375 
Q 16.0625 -19.390625 12.109375 -17.921875 
L 12.109375 -9.1875 
Q 16.0625 -11.328125 19.921875 -12.34375 
Q 23.78125 -13.375 27.78125 -13.375 
Q 36.625 -13.375 41.015625 -8.765625 
Q 45.40625 -4.15625 45.40625 5.171875 
L 45.40625 9.625 
Q 42.625 4.78125 38.28125 2.390625 
Q 33.9375 0 27.875 0 
Q 17.828125 0 11.671875 7.65625 
Q 5.515625 15.328125 5.515625 27.984375 
Q 5.515625 40.671875 11.671875 48.328125 
Q 17.828125 56 27.875 56 
Q 33.9375 56 38.28125 53.609375 
Q 42.625 51.21875 45.40625 46.390625 
L 45.40625 54.6875 
L 54.390625 54.6875 
z
" id="DejaVuSans-103"/>
       <path d="M 9.078125 75.984375 
L 18.109375 75.984375 
L 18.109375 31.109375 
L 44.921875 54.6875 
L 56.390625 54.6875 
L 27.390625 29.109375 
L 57.625 0 
L 45.90625 0 
L 18.109375 26.703125 
L 18.109375 0 
L 9.078125 0 
z
" id="DejaVuSans-107"/>
       <path d="M 18.3125 70.21875 
L 18.3125 54.6875 
L 36.8125 54.6875 
L 36.8125 47.703125 
L 18.3125 47.703125 
L 18.3125 18.015625 
Q 18.3125 11.328125 20.140625 9.421875 
Q 21.96875 7.515625 27.59375 7.515625 
L 36.8125 7.515625 
L 36.8125 0 
L 27.59375 0 
Q 17.1875 0 13.234375 3.875 
Q 9.28125 7.765625 9.28125 18.015625 
L 9.28125 47.703125 
L 2.6875 47.703125 
L 2.6875 54.6875 
L 9.28125 54.6875 
L 9.28125 70.21875 
z
" id="DejaVuSans-116"/>
      </defs>
      <use xlink:href="#DejaVuSans-71"/>
      <use x="77.490234" xlink:href="#DejaVuSans-101"/>
      <use x="139.013672" xlink:href="#DejaVuSans-110"/>
      <use x="202.392578" xlink:href="#DejaVuSans-97"/>
      <use x="263.671875" xlink:href="#DejaVuSans-117"/>
      <use x="327.050781" xlink:href="#DejaVuSans-105"/>
      <use x="354.833984" xlink:href="#DejaVuSans-103"/>
      <use x="418.310547" xlink:href="#DejaVuSans-107"/>
      <use x="472.595703" xlink:href="#DejaVuSans-101"/>
      <use x="534.119141" xlink:href="#DejaVuSans-105"/>
      <use x="561.902344" xlink:href="#DejaVuSans-116"/>
     </g>
    </g>
   </g>
   <g id="line2d_13">
    <path clip-path="url(#p8684e84867)" d="M 52.538954 111.597282 
L 54.76995 176.65635 
L 57.000946 188.145913 
L 59.231942 198.115303 
L 61.462938 198.273303 
L 63.693934 208.226522 
L 65.92493 210.026184 
L 68.155926 212.713122 
L 70.386922 213.701522 
L 72.617918 215.005875 
L 74.848914 223.590208 
L 77.07991 224.992419 
L 79.310906 226.733562 
L 81.541903 227.796234 
L 83.772899 227.059396 
L 86.003895 229.594476 
L 88.234891 233.367563 
L 90.465887 234.21966 
L 92.696883 236.758896 
L 94.927879 234.71602 
L 97.158875 237.717874 
L 99.389871 238.699355 
L 101.620867 237.182292 
L 103.851863 241.1091 
L 106.082859 238.355824 
L 108.313855 242.616267 
L 110.544851 244.009904 
L 112.775847 244.63239 
L 115.006843 243.122996 
L 117.237839 246.798904 
L 119.468835 245.606383 
L 121.699831 245.704833 
L 123.930828 247.523514 
L 126.161824 249.009812 
L 128.39282 249.23407 
L 130.623816 248.741386 
L 132.854812 249.298626 
L 135.085808 250.069515 
L 137.316804 244.706518 
L 139.5478 241.281209 
L 141.778796 237.098739 
L 144.009792 247.626703 
L 146.240788 252.507306 
L 148.471784 253.992926 
L 150.70278 254.002921 
L 152.933776 253.612812 
L 155.164772 252.098722 
L 157.395768 254.242414 
L 159.626764 255.253909 
L 161.85776 254.904604 
L 164.088756 255.052045 
L 166.319753 253.808313 
L 168.550749 254.929021 
L 170.781745 254.809916 
L 173.012741 254.366633 
L 175.243737 255.853522 
L 177.474733 256.785442 
L 179.705729 257.803928 
L 181.936725 257.389116 
L 184.167721 257.387468 
L 186.398717 258.088294 
L 188.629713 257.991665 
L 190.860709 258.293924 
L 193.091705 252.50278 
L 195.322701 247.117318 
L 197.553697 256.152863 
L 199.784693 258.275992 
L 202.015689 260.255498 
L 204.246685 260.605179 
L 206.477681 260.30699 
L 208.708678 261.158272 
L 210.939674 260.622675 
L 213.17067 260.512861 
L 215.401666 260.264954 
L 217.632662 260.317334 
L 219.863658 259.424241 
L 222.094654 260.144293 
L 224.32565 259.807976 
L 226.556646 259.522008 
L 228.787642 259.80188 
L 231.018638 260.19029 
L 233.249634 259.303958 
L 235.48063 257.874725 
L 237.711626 259.794591 
L 239.942622 260.440078 
L 242.173618 259.959975 
L 244.404614 259.436657 
L 246.63561 252.453593 
L 248.866606 259.94266 
L 251.097602 261.696774 
L 253.328599 262.598009 
L 255.559595 262.85076 
L 257.790591 262.638196 
L 260.021587 262.493078 
L 262.252583 262.694309 
L 264.483579 262.300295 
L 266.714575 262.303395 
L 268.945571 262.047127 
L 271.176567 261.594792 
L 273.407563 262.265821 
L 275.638559 262.253812 
L 277.869555 263.009494 
L 280.100551 263.154324 
L 282.331547 262.667133 
L 284.562543 262.93263 
L 286.793539 263.130188 
L 289.024535 263.107746 
L 291.255531 263.015443 
" style="fill:none;stroke:#1f77b4;stroke-linecap:square;stroke-width:1.5;"/>
   </g>
   <g id="line2d_14">
    <path clip-path="url(#p8684e84867)" d="M 52.538954 172.849152 
L 54.76995 189.805048 
L 57.000946 158.07247 
L 59.231942 7.326943 
L 61.462938 165.65308 
L 63.693934 199.337377 
L 65.92493 208.567674 
L 68.155926 206.782401 
L 70.386922 178.537874 
L 72.617918 199.243109 
L 74.848914 205.104661 
L 77.07991 212.489844 
L 79.310906 163.518336 
L 81.541903 152.827686 
L 83.772899 208.84237 
L 86.003895 218.733513 
L 88.234891 221.725063 
L 90.465887 214.702927 
L 92.696883 220.571969 
L 94.927879 197.36685 
L 97.158875 167.948266 
L 99.389871 222.168047 
L 101.620867 223.704627 
L 103.851863 217.032509 
L 106.082859 222.21636 
L 108.313855 219.00351 
L 110.544851 221.355999 
L 112.775847 227.025394 
L 115.006843 221.38823 
L 117.237839 228.332708 
L 119.468835 222.057331 
L 121.699831 228.273986 
L 123.930828 228.925402 
L 126.161824 228.190739 
L 128.39282 226.694702 
L 130.623816 223.172345 
L 132.854812 224.309048 
L 135.085808 225.764814 
L 137.316804 222.85081 
L 139.5478 222.753504 
L 141.778796 218.694168 
L 144.009792 228.39373 
L 146.240788 229.685304 
L 148.471784 230.022836 
L 150.70278 229.402431 
L 152.933776 211.500966 
L 155.164772 229.437459 
L 157.395768 229.303066 
L 159.626764 228.910475 
L 161.85776 228.636243 
L 164.088756 228.257972 
L 166.319753 229.213217 
L 168.550749 227.156349 
L 170.781745 219.274933 
L 173.012741 230.366051 
L 175.243737 229.734678 
L 177.474733 230.650876 
L 179.705729 231.510035 
L 181.936725 226.018329 
L 184.167721 228.161584 
L 186.398717 230.563872 
L 188.629713 231.818866 
L 190.860709 231.479687 
L 193.091705 222.703117 
L 195.322701 231.173916 
L 197.553697 231.541643 
L 199.784693 233.082641 
L 202.015689 232.0425 
L 204.246685 232.551588 
L 206.477681 233.442688 
L 208.708678 230.986078 
L 210.939674 232.240911 
L 213.17067 231.18689 
L 215.401666 231.519808 
L 217.632662 233.0734 
L 219.863658 232.385326 
L 222.094654 234.017657 
L 224.32565 233.605379 
L 226.556646 233.166789 
L 228.787642 233.081858 
L 231.018638 233.586026 
L 233.249634 232.729112 
L 235.48063 232.793055 
L 237.711626 232.641419 
L 239.942622 229.596739 
L 242.173618 232.509754 
L 244.404614 232.405818 
L 246.63561 231.743983 
L 248.866606 233.015134 
L 251.097602 233.342874 
L 253.328599 233.648013 
L 255.559595 233.297032 
L 257.790591 233.650037 
L 260.021587 233.530716 
L 262.252583 231.854186 
L 264.483579 232.028174 
L 266.714575 231.492618 
L 268.945571 233.971645 
L 271.176567 232.963825 
L 273.407563 231.803034 
L 275.638559 234.111779 
L 277.869555 234.599601 
L 280.100551 233.271509 
L 282.331547 234.679186 
L 284.562543 233.820232 
L 286.793539 232.885268 
L 289.024535 233.64364 
L 291.255531 235.330152 
" style="fill:none;stroke:#ff7f0e;stroke-linecap:square;stroke-width:1.5;"/>
   </g>
   <g id="patch_3">
    <path d="M 40.603125 294.118125 
L 40.603125 22.318125 
" style="fill:none;stroke:#000000;stroke-linecap:square;stroke-linejoin:miter;stroke-width:0.8;"/>
   </g>
   <g id="patch_4">
    <path d="M 303.19136 294.118125 
L 303.19136 22.318125 
" style="fill:none;stroke:#000000;stroke-linecap:square;stroke-linejoin:miter;stroke-width:0.8;"/>
   </g>
   <g id="patch_5">
    <path d="M 40.603125 294.118125 
L 303.19136 294.118125 
" style="fill:none;stroke:#000000;stroke-linecap:square;stroke-linejoin:miter;stroke-width:0.8;"/>
   </g>
   <g id="patch_6">
    <path d="M 40.603125 22.318125 
L 303.19136 22.318125 
" style="fill:none;stroke:#000000;stroke-linecap:square;stroke-linejoin:miter;stroke-width:0.8;"/>
   </g>
   <g id="text_15">
    <!-- Durchnittlicher Fehler in Monaten -->
    <g transform="translate(71.46943 16.318125)scale(0.12 -0.12)">
     <defs>
      <path d="M 19.671875 64.796875 
L 19.671875 8.109375 
L 31.59375 8.109375 
Q 46.6875 8.109375 53.6875 14.9375 
Q 60.6875 21.78125 60.6875 36.53125 
Q 60.6875 51.171875 53.6875 57.984375 
Q 46.6875 64.796875 31.59375 64.796875 
z
M 9.8125 72.90625 
L 30.078125 72.90625 
Q 51.265625 72.90625 61.171875 64.09375 
Q 71.09375 55.28125 71.09375 36.53125 
Q 71.09375 17.671875 61.125 8.828125 
Q 51.171875 0 30.078125 0 
L 9.8125 0 
z
" id="DejaVuSans-68"/>
      <path d="M 41.109375 46.296875 
Q 39.59375 47.171875 37.8125 47.578125 
Q 36.03125 48 33.890625 48 
Q 26.265625 48 22.1875 43.046875 
Q 18.109375 38.09375 18.109375 28.8125 
L 18.109375 0 
L 9.078125 0 
L 9.078125 54.6875 
L 18.109375 54.6875 
L 18.109375 46.1875 
Q 20.953125 51.171875 25.484375 53.578125 
Q 30.03125 56 36.53125 56 
Q 37.453125 56 38.578125 55.875 
Q 39.703125 55.765625 41.0625 55.515625 
z
" id="DejaVuSans-114"/>
      <path d="M 9.421875 75.984375 
L 18.40625 75.984375 
L 18.40625 0 
L 9.421875 0 
z
" id="DejaVuSans-108"/>
      <path id="DejaVuSans-32"/>
      <path d="M 9.8125 72.90625 
L 51.703125 72.90625 
L 51.703125 64.59375 
L 19.671875 64.59375 
L 19.671875 43.109375 
L 48.578125 43.109375 
L 48.578125 34.8125 
L 19.671875 34.8125 
L 19.671875 0 
L 9.8125 0 
z
" id="DejaVuSans-70"/>
      <path d="M 9.8125 72.90625 
L 24.515625 72.90625 
L 43.109375 23.296875 
L 61.8125 72.90625 
L 76.515625 72.90625 
L 76.515625 0 
L 66.890625 0 
L 66.890625 64.015625 
L 48.09375 14.015625 
L 38.1875 14.015625 
L 19.390625 64.015625 
L 19.390625 0 
L 9.8125 0 
z
" id="DejaVuSans-77"/>
     </defs>
     <use xlink:href="#DejaVuSans-68"/>
     <use x="77.001953" xlink:href="#DejaVuSans-117"/>
     <use x="140.380859" xlink:href="#DejaVuSans-114"/>
     <use x="179.244141" xlink:href="#DejaVuSans-99"/>
     <use x="234.224609" xlink:href="#DejaVuSans-104"/>
     <use x="297.603516" xlink:href="#DejaVuSans-110"/>
     <use x="360.982422" xlink:href="#DejaVuSans-105"/>
     <use x="388.765625" xlink:href="#DejaVuSans-116"/>
     <use x="427.974609" xlink:href="#DejaVuSans-116"/>
     <use x="467.183594" xlink:href="#DejaVuSans-108"/>
     <use x="494.966797" xlink:href="#DejaVuSans-105"/>
     <use x="522.75" xlink:href="#DejaVuSans-99"/>
     <use x="577.730469" xlink:href="#DejaVuSans-104"/>
     <use x="641.109375" xlink:href="#DejaVuSans-101"/>
     <use x="702.632812" xlink:href="#DejaVuSans-114"/>
     <use x="743.746094" xlink:href="#DejaVuSans-32"/>
     <use x="775.533203" xlink:href="#DejaVuSans-70"/>
     <use x="827.552734" xlink:href="#DejaVuSans-101"/>
     <use x="889.076172" xlink:href="#DejaVuSans-104"/>
     <use x="952.455078" xlink:href="#DejaVuSans-108"/>
     <use x="980.238281" xlink:href="#DejaVuSans-101"/>
     <use x="1041.761719" xlink:href="#DejaVuSans-114"/>
     <use x="1082.875" xlink:href="#DejaVuSans-32"/>
     <use x="1114.662109" xlink:href="#DejaVuSans-105"/>
     <use x="1142.445312" xlink:href="#DejaVuSans-110"/>
     <use x="1205.824219" xlink:href="#DejaVuSans-32"/>
     <use x="1237.611328" xlink:href="#DejaVuSans-77"/>
     <use x="1323.890625" xlink:href="#DejaVuSans-111"/>
     <use x="1385.072266" xlink:href="#DejaVuSans-110"/>
     <use x="1448.451172" xlink:href="#DejaVuSans-97"/>
     <use x="1509.730469" xlink:href="#DejaVuSans-116"/>
     <use x="1548.939453" xlink:href="#DejaVuSans-101"/>
     <use x="1610.462891" xlink:href="#DejaVuSans-110"/>
    </g>
   </g>
   <g id="legend_1">
    <g id="patch_7">
     <path d="M 214.81011 59.674375 
L 296.19136 59.674375 
Q 298.19136 59.674375 298.19136 57.674375 
L 298.19136 29.318125 
Q 298.19136 27.318125 296.19136 27.318125 
L 214.81011 27.318125 
Q 212.81011 27.318125 212.81011 29.318125 
L 212.81011 57.674375 
Q 212.81011 59.674375 214.81011 59.674375 
z
" style="fill:#ffffff;opacity:0.8;stroke:#cccccc;stroke-linejoin:miter;"/>
    </g>
    <g id="line2d_15">
     <path d="M 216.81011 35.416562 
L 236.81011 35.416562 
" style="fill:none;stroke:#1f77b4;stroke-linecap:square;stroke-width:1.5;"/>
    </g>
    <g id="line2d_16"/>
    <g id="text_16">
     <!-- Trainig -->
     <g transform="translate(244.81011 38.916562)scale(0.1 -0.1)">
      <defs>
       <path d="M -0.296875 72.90625 
L 61.375 72.90625 
L 61.375 64.59375 
L 35.5 64.59375 
L 35.5 0 
L 25.59375 0 
L 25.59375 64.59375 
L -0.296875 64.59375 
z
" id="DejaVuSans-84"/>
      </defs>
      <use xlink:href="#DejaVuSans-84"/>
      <use x="46.333984" xlink:href="#DejaVuSans-114"/>
      <use x="87.447266" xlink:href="#DejaVuSans-97"/>
      <use x="148.726562" xlink:href="#DejaVuSans-105"/>
      <use x="176.509766" xlink:href="#DejaVuSans-110"/>
      <use x="239.888672" xlink:href="#DejaVuSans-105"/>
      <use x="267.671875" xlink:href="#DejaVuSans-103"/>
     </g>
    </g>
    <g id="line2d_17">
     <path d="M 216.81011 50.094688 
L 236.81011 50.094688 
" style="fill:none;stroke:#ff7f0e;stroke-linecap:square;stroke-width:1.5;"/>
    </g>
    <g id="line2d_18"/>
    <g id="text_17">
     <!-- Validation -->
     <g transform="translate(244.81011 53.594688)scale(0.1 -0.1)">
      <defs>
       <path d="M 28.609375 0 
L 0.78125 72.90625 
L 11.078125 72.90625 
L 34.1875 11.53125 
L 57.328125 72.90625 
L 67.578125 72.90625 
L 39.796875 0 
z
" id="DejaVuSans-86"/>
       <path d="M 45.40625 46.390625 
L 45.40625 75.984375 
L 54.390625 75.984375 
L 54.390625 0 
L 45.40625 0 
L 45.40625 8.203125 
Q 42.578125 3.328125 38.25 0.953125 
Q 33.9375 -1.421875 27.875 -1.421875 
Q 17.96875 -1.421875 11.734375 6.484375 
Q 5.515625 14.40625 5.515625 27.296875 
Q 5.515625 40.1875 11.734375 48.09375 
Q 17.96875 56 27.875 56 
Q 33.9375 56 38.25 53.625 
Q 42.578125 51.265625 45.40625 46.390625 
z
M 14.796875 27.296875 
Q 14.796875 17.390625 18.875 11.75 
Q 22.953125 6.109375 30.078125 6.109375 
Q 37.203125 6.109375 41.296875 11.75 
Q 45.40625 17.390625 45.40625 27.296875 
Q 45.40625 37.203125 41.296875 42.84375 
Q 37.203125 48.484375 30.078125 48.484375 
Q 22.953125 48.484375 18.875 42.84375 
Q 14.796875 37.203125 14.796875 27.296875 
z
" id="DejaVuSans-100"/>
      </defs>
      <use xlink:href="#DejaVuSans-86"/>
      <use x="60.658203" xlink:href="#DejaVuSans-97"/>
      <use x="121.9375" xlink:href="#DejaVuSans-108"/>
      <use x="149.720703" xlink:href="#DejaVuSans-105"/>
      <use x="177.503906" xlink:href="#DejaVuSans-100"/>
      <use x="240.980469" xlink:href="#DejaVuSans-97"/>
      <use x="302.259766" xlink:href="#DejaVuSans-116"/>
      <use x="341.46875" xlink:href="#DejaVuSans-105"/>
      <use x="369.251953" xlink:href="#DejaVuSans-111"/>
      <use x="430.433594" xlink:href="#DejaVuSans-110"/>
     </g>
    </g>
   </g>
  </g>
  <g id="axes_2">
   <g id="patch_8">
    <path d="M 355.709007 294.118125 
L 618.297243 294.118125 
L 618.297243 22.318125 
L 355.709007 22.318125 
z
" style="fill:#ffffff;"/>
   </g>
   <g id="matplotlib.axis_3">
    <g id="xtick_7">
     <g id="line2d_19">
      <g>
       <use style="stroke:#000000;stroke-width:0.8;" x="367.644836" xlink:href="#m538376f62b" y="294.118125"/>
      </g>
     </g>
     <g id="text_18">
      <!-- 0 -->
      <g transform="translate(364.463586 308.716563)scale(0.1 -0.1)">
       <use xlink:href="#DejaVuSans-48"/>
      </g>
     </g>
    </g>
    <g id="xtick_8">
     <g id="line2d_20">
      <g>
       <use style="stroke:#000000;stroke-width:0.8;" x="412.264757" xlink:href="#m538376f62b" y="294.118125"/>
      </g>
     </g>
     <g id="text_19">
      <!-- 20 -->
      <g transform="translate(405.902257 308.716563)scale(0.1 -0.1)">
       <use xlink:href="#DejaVuSans-50"/>
       <use x="63.623047" xlink:href="#DejaVuSans-48"/>
      </g>
     </g>
    </g>
    <g id="xtick_9">
     <g id="line2d_21">
      <g>
       <use style="stroke:#000000;stroke-width:0.8;" x="456.884678" xlink:href="#m538376f62b" y="294.118125"/>
      </g>
     </g>
     <g id="text_20">
      <!-- 40 -->
      <g transform="translate(450.522178 308.716563)scale(0.1 -0.1)">
       <use xlink:href="#DejaVuSans-52"/>
       <use x="63.623047" xlink:href="#DejaVuSans-48"/>
      </g>
     </g>
    </g>
    <g id="xtick_10">
     <g id="line2d_22">
      <g>
       <use style="stroke:#000000;stroke-width:0.8;" x="501.504599" xlink:href="#m538376f62b" y="294.118125"/>
      </g>
     </g>
     <g id="text_21">
      <!-- 60 -->
      <g transform="translate(495.142099 308.716563)scale(0.1 -0.1)">
       <use xlink:href="#DejaVuSans-54"/>
       <use x="63.623047" xlink:href="#DejaVuSans-48"/>
      </g>
     </g>
    </g>
    <g id="xtick_11">
     <g id="line2d_23">
      <g>
       <use style="stroke:#000000;stroke-width:0.8;" x="546.12452" xlink:href="#m538376f62b" y="294.118125"/>
      </g>
     </g>
     <g id="text_22">
      <!-- 80 -->
      <g transform="translate(539.76202 308.716563)scale(0.1 -0.1)">
       <use xlink:href="#DejaVuSans-56"/>
       <use x="63.623047" xlink:href="#DejaVuSans-48"/>
      </g>
     </g>
    </g>
    <g id="xtick_12">
     <g id="line2d_24">
      <g>
       <use style="stroke:#000000;stroke-width:0.8;" x="590.744441" xlink:href="#m538376f62b" y="294.118125"/>
      </g>
     </g>
     <g id="text_23">
      <!-- 100 -->
      <g transform="translate(581.200691 308.716563)scale(0.1 -0.1)">
       <use xlink:href="#DejaVuSans-49"/>
       <use x="63.623047" xlink:href="#DejaVuSans-48"/>
       <use x="127.246094" xlink:href="#DejaVuSans-48"/>
      </g>
     </g>
    </g>
    <g id="text_24">
     <!-- Epochen -->
     <g transform="translate(465.446875 322.394687)scale(0.1 -0.1)">
      <use xlink:href="#DejaVuSans-69"/>
      <use x="63.183594" xlink:href="#DejaVuSans-112"/>
      <use x="126.660156" xlink:href="#DejaVuSans-111"/>
      <use x="187.841797" xlink:href="#DejaVuSans-99"/>
      <use x="242.822266" xlink:href="#DejaVuSans-104"/>
      <use x="306.201172" xlink:href="#DejaVuSans-101"/>
      <use x="367.724609" xlink:href="#DejaVuSans-110"/>
     </g>
    </g>
   </g>
   <g id="matplotlib.axis_4">
    <g id="ytick_7">
     <g id="line2d_25">
      <g>
       <use style="stroke:#000000;stroke-width:0.8;" x="355.709007" xlink:href="#me98b71f6d7" y="294.118125"/>
      </g>
     </g>
     <g id="text_25">
      <!-- 0 -->
      <g transform="translate(342.346507 297.917344)scale(0.1 -0.1)">
       <use xlink:href="#DejaVuSans-48"/>
      </g>
     </g>
    </g>
    <g id="ytick_8">
     <g id="line2d_26">
      <g>
       <use style="stroke:#000000;stroke-width:0.8;" x="355.709007" xlink:href="#me98b71f6d7" y="255.289554"/>
      </g>
     </g>
     <g id="text_26">
      <!-- 500 -->
      <g transform="translate(329.621507 259.088772)scale(0.1 -0.1)">
       <use xlink:href="#DejaVuSans-53"/>
       <use x="63.623047" xlink:href="#DejaVuSans-48"/>
       <use x="127.246094" xlink:href="#DejaVuSans-48"/>
      </g>
     </g>
    </g>
    <g id="ytick_9">
     <g id="line2d_27">
      <g>
       <use style="stroke:#000000;stroke-width:0.8;" x="355.709007" xlink:href="#me98b71f6d7" y="216.460982"/>
      </g>
     </g>
     <g id="text_27">
      <!-- 1000 -->
      <g transform="translate(323.259007 220.260201)scale(0.1 -0.1)">
       <use xlink:href="#DejaVuSans-49"/>
       <use x="63.623047" xlink:href="#DejaVuSans-48"/>
       <use x="127.246094" xlink:href="#DejaVuSans-48"/>
       <use x="190.869141" xlink:href="#DejaVuSans-48"/>
      </g>
     </g>
    </g>
    <g id="ytick_10">
     <g id="line2d_28">
      <g>
       <use style="stroke:#000000;stroke-width:0.8;" x="355.709007" xlink:href="#me98b71f6d7" y="177.632411"/>
      </g>
     </g>
     <g id="text_28">
      <!-- 1500 -->
      <g transform="translate(323.259007 181.431629)scale(0.1 -0.1)">
       <use xlink:href="#DejaVuSans-49"/>
       <use x="63.623047" xlink:href="#DejaVuSans-53"/>
       <use x="127.246094" xlink:href="#DejaVuSans-48"/>
       <use x="190.869141" xlink:href="#DejaVuSans-48"/>
      </g>
     </g>
    </g>
    <g id="ytick_11">
     <g id="line2d_29">
      <g>
       <use style="stroke:#000000;stroke-width:0.8;" x="355.709007" xlink:href="#me98b71f6d7" y="138.803839"/>
      </g>
     </g>
     <g id="text_29">
      <!-- 2000 -->
      <g transform="translate(323.259007 142.603058)scale(0.1 -0.1)">
       <use xlink:href="#DejaVuSans-50"/>
       <use x="63.623047" xlink:href="#DejaVuSans-48"/>
       <use x="127.246094" xlink:href="#DejaVuSans-48"/>
       <use x="190.869141" xlink:href="#DejaVuSans-48"/>
      </g>
     </g>
    </g>
    <g id="ytick_12">
     <g id="line2d_30">
      <g>
       <use style="stroke:#000000;stroke-width:0.8;" x="355.709007" xlink:href="#me98b71f6d7" y="99.975268"/>
      </g>
     </g>
     <g id="text_30">
      <!-- 2500 -->
      <g transform="translate(323.259007 103.774487)scale(0.1 -0.1)">
       <use xlink:href="#DejaVuSans-50"/>
       <use x="63.623047" xlink:href="#DejaVuSans-53"/>
       <use x="127.246094" xlink:href="#DejaVuSans-48"/>
       <use x="190.869141" xlink:href="#DejaVuSans-48"/>
      </g>
     </g>
    </g>
    <g id="ytick_13">
     <g id="line2d_31">
      <g>
       <use style="stroke:#000000;stroke-width:0.8;" x="355.709007" xlink:href="#me98b71f6d7" y="61.146696"/>
      </g>
     </g>
     <g id="text_31">
      <!-- 3000 -->
      <g transform="translate(323.259007 64.945915)scale(0.1 -0.1)">
       <use xlink:href="#DejaVuSans-51"/>
       <use x="63.623047" xlink:href="#DejaVuSans-48"/>
       <use x="127.246094" xlink:href="#DejaVuSans-48"/>
       <use x="190.869141" xlink:href="#DejaVuSans-48"/>
      </g>
     </g>
    </g>
    <g id="ytick_14">
     <g id="line2d_32">
      <g>
       <use style="stroke:#000000;stroke-width:0.8;" x="355.709007" xlink:href="#me98b71f6d7" y="22.318125"/>
      </g>
     </g>
     <g id="text_32">
      <!-- 3500 -->
      <g transform="translate(323.259007 26.117344)scale(0.1 -0.1)">
       <use xlink:href="#DejaVuSans-51"/>
       <use x="63.623047" xlink:href="#DejaVuSans-53"/>
       <use x="127.246094" xlink:href="#DejaVuSans-48"/>
       <use x="190.869141" xlink:href="#DejaVuSans-48"/>
      </g>
     </g>
    </g>
    <g id="text_33">
     <!-- Fehler -->
     <g transform="translate(317.17932 173.585313)rotate(-90)scale(0.1 -0.1)">
      <use xlink:href="#DejaVuSans-70"/>
      <use x="52.019531" xlink:href="#DejaVuSans-101"/>
      <use x="113.542969" xlink:href="#DejaVuSans-104"/>
      <use x="176.921875" xlink:href="#DejaVuSans-108"/>
      <use x="204.705078" xlink:href="#DejaVuSans-101"/>
      <use x="266.228516" xlink:href="#DejaVuSans-114"/>
     </g>
    </g>
   </g>
   <g id="line2d_33">
    <path clip-path="url(#p01c709d1fb)" d="M 367.644836 126.274746 
L 369.875832 233.797491 
L 372.106828 244.661367 
L 374.337824 252.774046 
L 376.56882 253.657523 
L 378.799816 262.030342 
L 381.030813 263.191082 
L 383.261809 265.531101 
L 385.492805 265.989416 
L 387.723801 267.492326 
L 389.954797 272.900827 
L 392.185793 273.796076 
L 394.416789 274.772512 
L 396.647785 275.037038 
L 398.878781 274.622148 
L 401.109777 276.330168 
L 403.340773 278.513793 
L 405.571769 278.799194 
L 407.802765 279.967747 
L 410.033761 279.108993 
L 412.264757 280.484223 
L 414.495753 280.879406 
L 416.726749 280.233479 
L 418.957745 281.810439 
L 421.188741 280.506673 
L 423.419738 282.782835 
L 425.650734 283.342223 
L 427.88173 283.512673 
L 430.112726 282.90539 
L 432.343722 284.543852 
L 434.574718 283.749287 
L 436.805714 284.073219 
L 439.03671 284.810731 
L 441.267706 285.498021 
L 443.498702 285.42566 
L 445.729698 285.392345 
L 447.960694 285.582093 
L 450.19169 285.817967 
L 452.422686 282.727417 
L 454.653682 281.397162 
L 456.884678 279.648551 
L 459.115674 284.77236 
L 461.34667 286.596561 
L 463.577666 287.154523 
L 465.808663 287.061423 
L 468.039659 286.77934 
L 470.270655 286.460319 
L 472.501651 287.291584 
L 474.732647 287.582468 
L 476.963643 287.491139 
L 479.194639 287.608042 
L 481.425635 287.106284 
L 483.656631 287.423584 
L 485.887627 287.486054 
L 488.118623 287.356162 
L 490.349619 287.806688 
L 492.580615 288.178091 
L 494.811611 288.405581 
L 497.042607 288.292302 
L 499.273603 288.338214 
L 501.504599 288.54404 
L 503.735595 288.543011 
L 505.966591 288.543431 
L 508.197587 285.110022 
L 510.428584 284.058533 
L 512.65958 287.948277 
L 514.890576 288.591784 
L 517.121572 289.144745 
L 519.352568 289.268098 
L 521.583564 289.200413 
L 523.81456 289.382099 
L 526.045556 289.183313 
L 528.276552 289.19525 
L 530.507548 289.134918 
L 532.738544 289.141105 
L 534.96954 288.904013 
L 537.200536 289.128197 
L 539.431532 289.014788 
L 541.662528 288.916313 
L 543.893524 289.01825 
L 546.12452 289.090578 
L 548.355516 288.778103 
L 550.586512 288.480611 
L 552.817509 289.023366 
L 555.048505 289.18349 
L 557.279501 289.077225 
L 559.510497 288.440479 
L 561.741493 286.244034 
L 563.972489 289.034619 
L 566.203485 289.51446 
L 568.434481 289.821771 
L 570.665477 289.798588 
L 572.896473 289.794453 
L 575.127469 289.756159 
L 577.358465 289.813266 
L 579.589461 289.689846 
L 581.820457 289.725326 
L 584.051453 289.590118 
L 586.282449 289.531963 
L 588.513445 289.711262 
L 590.744441 289.717338 
L 592.975437 289.858021 
L 595.206434 289.927278 
L 597.43743 289.754828 
L 599.668426 289.858983 
L 601.899422 289.93694 
L 604.130418 289.924916 
L 606.361414 289.839207 
" style="fill:none;stroke:#1f77b4;stroke-linecap:square;stroke-width:1.5;"/>
   </g>
   <g id="line2d_34">
    <path clip-path="url(#p01c709d1fb)" d="M 367.644836 229.221182 
L 369.875832 245.364377 
L 372.106828 219.794137 
L 374.337824 26.037296 
L 376.56882 226.819712 
L 378.799816 254.049324 
L 381.030813 260.003574 
L 383.261809 259.049044 
L 385.492805 239.552801 
L 387.723801 254.129987 
L 389.954797 259.252824 
L 392.185793 262.124541 
L 394.416789 228.512943 
L 396.647785 219.87676 
L 398.878781 261.690548 
L 401.109777 268.018203 
L 403.340773 269.338034 
L 405.571769 265.060058 
L 407.802765 268.263023 
L 410.033761 254.086001 
L 412.264757 231.945075 
L 414.495753 268.409614 
L 416.726749 270.998622 
L 418.957745 266.811648 
L 421.188741 268.760375 
L 423.419738 267.605379 
L 425.650734 269.985274 
L 427.88173 272.46739 
L 430.112726 268.791932 
L 432.343722 273.214312 
L 434.574718 269.361257 
L 436.805714 273.113509 
L 439.03671 273.567184 
L 441.267706 272.749497 
L 443.498702 271.789546 
L 445.729698 270.529238 
L 447.960694 270.373885 
L 450.19169 271.351634 
L 452.422686 267.735665 
L 454.653682 268.732448 
L 456.884678 261.414545 
L 459.115674 273.293674 
L 461.34667 274.177698 
L 463.577666 274.317518 
L 465.808663 273.300139 
L 468.039659 264.374893 
L 470.270655 273.411904 
L 472.501651 273.6737 
L 474.732647 272.940686 
L 476.963643 272.757468 
L 479.194639 272.954141 
L 481.425635 274.041981 
L 483.656631 272.344675 
L 485.887627 268.647418 
L 488.118623 273.741164 
L 490.349619 273.87699 
L 492.580615 274.663609 
L 494.811611 274.142739 
L 497.042607 272.922611 
L 499.273603 272.966736 
L 501.504599 273.597131 
L 503.735595 275.00986 
L 505.966591 274.592216 
L 508.197587 268.463234 
L 510.428584 274.73781 
L 512.65958 275.101422 
L 514.890576 275.728074 
L 517.121572 275.321332 
L 519.352568 275.461394 
L 521.583564 275.899663 
L 523.81456 274.592027 
L 526.045556 275.619049 
L 528.276552 274.848222 
L 530.507548 275.439332 
L 532.738544 276.030569 
L 534.96954 275.022219 
L 537.200536 276.261729 
L 539.431532 275.614372 
L 541.662528 275.944849 
L 543.893524 275.433915 
L 546.12452 276.032563 
L 548.355516 275.215686 
L 550.586512 275.313821 
L 552.817509 274.676717 
L 555.048505 273.751244 
L 557.279501 275.065775 
L 559.510497 274.335692 
L 561.741493 274.041752 
L 563.972489 274.697329 
L 566.203485 274.747888 
L 568.434481 275.322461 
L 570.665477 275.116431 
L 572.896473 275.546263 
L 575.127469 276.036313 
L 577.358465 274.165537 
L 579.589461 274.276118 
L 581.820457 274.451857 
L 584.051453 276.524429 
L 586.282449 274.787291 
L 588.513445 274.903602 
L 590.744441 275.91851 
L 592.975437 276.456941 
L 595.206434 275.512096 
L 597.43743 275.934498 
L 599.668426 275.579918 
L 601.899422 274.654407 
L 604.130418 275.424704 
L 606.361414 276.815852 
" style="fill:none;stroke:#ff7f0e;stroke-linecap:square;stroke-width:1.5;"/>
   </g>
   <g id="patch_9">
    <path d="M 355.709007 294.118125 
L 355.709007 22.318125 
" style="fill:none;stroke:#000000;stroke-linecap:square;stroke-linejoin:miter;stroke-width:0.8;"/>
   </g>
   <g id="patch_10">
    <path d="M 618.297243 294.118125 
L 618.297243 22.318125 
" style="fill:none;stroke:#000000;stroke-linecap:square;stroke-linejoin:miter;stroke-width:0.8;"/>
   </g>
   <g id="patch_11">
    <path d="M 355.709007 294.118125 
L 618.297243 294.118125 
" style="fill:none;stroke:#000000;stroke-linecap:square;stroke-linejoin:miter;stroke-width:0.8;"/>
   </g>
   <g id="patch_12">
    <path d="M 355.709007 22.318125 
L 618.297243 22.318125 
" style="fill:none;stroke:#000000;stroke-linecap:square;stroke-linejoin:miter;stroke-width:0.8;"/>
   </g>
   <g id="text_34">
    <!-- Durchschnittlicher Fehler der Fehlerfunktion -->
    <g transform="translate(354.899063 16.318125)scale(0.12 -0.12)">
     <defs>
      <path d="M 44.28125 53.078125 
L 44.28125 44.578125 
Q 40.484375 46.53125 36.375 47.5 
Q 32.28125 48.484375 27.875 48.484375 
Q 21.1875 48.484375 17.84375 46.4375 
Q 14.5 44.390625 14.5 40.28125 
Q 14.5 37.15625 16.890625 35.375 
Q 19.28125 33.59375 26.515625 31.984375 
L 29.59375 31.296875 
Q 39.15625 29.25 43.1875 25.515625 
Q 47.21875 21.78125 47.21875 15.09375 
Q 47.21875 7.46875 41.1875 3.015625 
Q 35.15625 -1.421875 24.609375 -1.421875 
Q 20.21875 -1.421875 15.453125 -0.5625 
Q 10.6875 0.296875 5.421875 2 
L 5.421875 11.28125 
Q 10.40625 8.6875 15.234375 7.390625 
Q 20.0625 6.109375 24.8125 6.109375 
Q 31.15625 6.109375 34.5625 8.28125 
Q 37.984375 10.453125 37.984375 14.40625 
Q 37.984375 18.0625 35.515625 20.015625 
Q 33.0625 21.96875 24.703125 23.78125 
L 21.578125 24.515625 
Q 13.234375 26.265625 9.515625 29.90625 
Q 5.8125 33.546875 5.8125 39.890625 
Q 5.8125 47.609375 11.28125 51.796875 
Q 16.75 56 26.8125 56 
Q 31.78125 56 36.171875 55.265625 
Q 40.578125 54.546875 44.28125 53.078125 
z
" id="DejaVuSans-115"/>
      <path d="M 37.109375 75.984375 
L 37.109375 68.5 
L 28.515625 68.5 
Q 23.6875 68.5 21.796875 66.546875 
Q 19.921875 64.59375 19.921875 59.515625 
L 19.921875 54.6875 
L 34.71875 54.6875 
L 34.71875 47.703125 
L 19.921875 47.703125 
L 19.921875 0 
L 10.890625 0 
L 10.890625 47.703125 
L 2.296875 47.703125 
L 2.296875 54.6875 
L 10.890625 54.6875 
L 10.890625 58.5 
Q 10.890625 67.625 15.140625 71.796875 
Q 19.390625 75.984375 28.609375 75.984375 
z
" id="DejaVuSans-102"/>
     </defs>
     <use xlink:href="#DejaVuSans-68"/>
     <use x="77.001953" xlink:href="#DejaVuSans-117"/>
     <use x="140.380859" xlink:href="#DejaVuSans-114"/>
     <use x="179.244141" xlink:href="#DejaVuSans-99"/>
     <use x="234.224609" xlink:href="#DejaVuSans-104"/>
     <use x="297.603516" xlink:href="#DejaVuSans-115"/>
     <use x="349.703125" xlink:href="#DejaVuSans-99"/>
     <use x="404.683594" xlink:href="#DejaVuSans-104"/>
     <use x="468.0625" xlink:href="#DejaVuSans-110"/>
     <use x="531.441406" xlink:href="#DejaVuSans-105"/>
     <use x="559.224609" xlink:href="#DejaVuSans-116"/>
     <use x="598.433594" xlink:href="#DejaVuSans-116"/>
     <use x="637.642578" xlink:href="#DejaVuSans-108"/>
     <use x="665.425781" xlink:href="#DejaVuSans-105"/>
     <use x="693.208984" xlink:href="#DejaVuSans-99"/>
     <use x="748.189453" xlink:href="#DejaVuSans-104"/>
     <use x="811.568359" xlink:href="#DejaVuSans-101"/>
     <use x="873.091797" xlink:href="#DejaVuSans-114"/>
     <use x="914.205078" xlink:href="#DejaVuSans-32"/>
     <use x="945.992188" xlink:href="#DejaVuSans-70"/>
     <use x="998.011719" xlink:href="#DejaVuSans-101"/>
     <use x="1059.535156" xlink:href="#DejaVuSans-104"/>
     <use x="1122.914062" xlink:href="#DejaVuSans-108"/>
     <use x="1150.697266" xlink:href="#DejaVuSans-101"/>
     <use x="1212.220703" xlink:href="#DejaVuSans-114"/>
     <use x="1253.333984" xlink:href="#DejaVuSans-32"/>
     <use x="1285.121094" xlink:href="#DejaVuSans-100"/>
     <use x="1348.597656" xlink:href="#DejaVuSans-101"/>
     <use x="1410.121094" xlink:href="#DejaVuSans-114"/>
     <use x="1451.234375" xlink:href="#DejaVuSans-32"/>
     <use x="1483.021484" xlink:href="#DejaVuSans-70"/>
     <use x="1535.041016" xlink:href="#DejaVuSans-101"/>
     <use x="1596.564453" xlink:href="#DejaVuSans-104"/>
     <use x="1659.943359" xlink:href="#DejaVuSans-108"/>
     <use x="1687.726562" xlink:href="#DejaVuSans-101"/>
     <use x="1749.25" xlink:href="#DejaVuSans-114"/>
     <use x="1790.363281" xlink:href="#DejaVuSans-102"/>
     <use x="1825.568359" xlink:href="#DejaVuSans-117"/>
     <use x="1888.947266" xlink:href="#DejaVuSans-110"/>
     <use x="1952.326172" xlink:href="#DejaVuSans-107"/>
     <use x="2010.236328" xlink:href="#DejaVuSans-116"/>
     <use x="2049.445312" xlink:href="#DejaVuSans-105"/>
     <use x="2077.228516" xlink:href="#DejaVuSans-111"/>
     <use x="2138.410156" xlink:href="#DejaVuSans-110"/>
    </g>
   </g>
   <g id="legend_2">
    <g id="patch_13">
     <path d="M 529.915993 59.674375 
L 611.297243 59.674375 
Q 613.297243 59.674375 613.297243 57.674375 
L 613.297243 29.318125 
Q 613.297243 27.318125 611.297243 27.318125 
L 529.915993 27.318125 
Q 527.915993 27.318125 527.915993 29.318125 
L 527.915993 57.674375 
Q 527.915993 59.674375 529.915993 59.674375 
z
" style="fill:#ffffff;opacity:0.8;stroke:#cccccc;stroke-linejoin:miter;"/>
    </g>
    <g id="line2d_35">
     <path d="M 531.915993 35.416562 
L 551.915993 35.416562 
" style="fill:none;stroke:#1f77b4;stroke-linecap:square;stroke-width:1.5;"/>
    </g>
    <g id="line2d_36"/>
    <g id="text_35">
     <!-- Trainig -->
     <g transform="translate(559.915993 38.916562)scale(0.1 -0.1)">
      <use xlink:href="#DejaVuSans-84"/>
      <use x="46.333984" xlink:href="#DejaVuSans-114"/>
      <use x="87.447266" xlink:href="#DejaVuSans-97"/>
      <use x="148.726562" xlink:href="#DejaVuSans-105"/>
      <use x="176.509766" xlink:href="#DejaVuSans-110"/>
      <use x="239.888672" xlink:href="#DejaVuSans-105"/>
      <use x="267.671875" xlink:href="#DejaVuSans-103"/>
     </g>
    </g>
    <g id="line2d_37">
     <path d="M 531.915993 50.094688 
L 551.915993 50.094688 
" style="fill:none;stroke:#ff7f0e;stroke-linecap:square;stroke-width:1.5;"/>
    </g>
    <g id="line2d_38"/>
    <g id="text_36">
     <!-- Validation -->
     <g transform="translate(559.915993 53.594688)scale(0.1 -0.1)">
      <use xlink:href="#DejaVuSans-86"/>
      <use x="60.658203" xlink:href="#DejaVuSans-97"/>
      <use x="121.9375" xlink:href="#DejaVuSans-108"/>
      <use x="149.720703" xlink:href="#DejaVuSans-105"/>
      <use x="177.503906" xlink:href="#DejaVuSans-100"/>
      <use x="240.980469" xlink:href="#DejaVuSans-97"/>
      <use x="302.259766" xlink:href="#DejaVuSans-116"/>
      <use x="341.46875" xlink:href="#DejaVuSans-105"/>
      <use x="369.251953" xlink:href="#DejaVuSans-111"/>
      <use x="430.433594" xlink:href="#DejaVuSans-110"/>
     </g>
    </g>
   </g>
  </g>
  <g id="axes_3">
   <g id="patch_14">
    <path d="M 670.81489 294.118125 
L 933.403125 294.118125 
L 933.403125 22.318125 
L 670.81489 22.318125 
z
" style="fill:#ffffff;"/>
   </g>
   <g id="matplotlib.axis_5">
    <g id="xtick_13">
     <g id="line2d_39">
      <g>
       <use style="stroke:#000000;stroke-width:0.8;" x="682.750719" xlink:href="#m538376f62b" y="294.118125"/>
      </g>
     </g>
     <g id="text_37">
      <!-- 0 -->
      <g transform="translate(679.569469 308.716563)scale(0.1 -0.1)">
       <use xlink:href="#DejaVuSans-48"/>
      </g>
     </g>
    </g>
    <g id="xtick_14">
     <g id="line2d_40">
      <g>
       <use style="stroke:#000000;stroke-width:0.8;" x="727.37064" xlink:href="#m538376f62b" y="294.118125"/>
      </g>
     </g>
     <g id="text_38">
      <!-- 20 -->
      <g transform="translate(721.00814 308.716563)scale(0.1 -0.1)">
       <use xlink:href="#DejaVuSans-50"/>
       <use x="63.623047" xlink:href="#DejaVuSans-48"/>
      </g>
     </g>
    </g>
    <g id="xtick_15">
     <g id="line2d_41">
      <g>
       <use style="stroke:#000000;stroke-width:0.8;" x="771.990561" xlink:href="#m538376f62b" y="294.118125"/>
      </g>
     </g>
     <g id="text_39">
      <!-- 40 -->
      <g transform="translate(765.628061 308.716563)scale(0.1 -0.1)">
       <use xlink:href="#DejaVuSans-52"/>
       <use x="63.623047" xlink:href="#DejaVuSans-48"/>
      </g>
     </g>
    </g>
    <g id="xtick_16">
     <g id="line2d_42">
      <g>
       <use style="stroke:#000000;stroke-width:0.8;" x="816.610482" xlink:href="#m538376f62b" y="294.118125"/>
      </g>
     </g>
     <g id="text_40">
      <!-- 60 -->
      <g transform="translate(810.247982 308.716563)scale(0.1 -0.1)">
       <use xlink:href="#DejaVuSans-54"/>
       <use x="63.623047" xlink:href="#DejaVuSans-48"/>
      </g>
     </g>
    </g>
    <g id="xtick_17">
     <g id="line2d_43">
      <g>
       <use style="stroke:#000000;stroke-width:0.8;" x="861.230403" xlink:href="#m538376f62b" y="294.118125"/>
      </g>
     </g>
     <g id="text_41">
      <!-- 80 -->
      <g transform="translate(854.867903 308.716563)scale(0.1 -0.1)">
       <use xlink:href="#DejaVuSans-56"/>
       <use x="63.623047" xlink:href="#DejaVuSans-48"/>
      </g>
     </g>
    </g>
    <g id="xtick_18">
     <g id="line2d_44">
      <g>
       <use style="stroke:#000000;stroke-width:0.8;" x="905.850324" xlink:href="#m538376f62b" y="294.118125"/>
      </g>
     </g>
     <g id="text_42">
      <!-- 100 -->
      <g transform="translate(896.306574 308.716563)scale(0.1 -0.1)">
       <use xlink:href="#DejaVuSans-49"/>
       <use x="63.623047" xlink:href="#DejaVuSans-48"/>
       <use x="127.246094" xlink:href="#DejaVuSans-48"/>
      </g>
     </g>
    </g>
    <g id="text_43">
     <!-- Epochen -->
     <g transform="translate(780.552757 322.394687)scale(0.1 -0.1)">
      <use xlink:href="#DejaVuSans-69"/>
      <use x="63.183594" xlink:href="#DejaVuSans-112"/>
      <use x="126.660156" xlink:href="#DejaVuSans-111"/>
      <use x="187.841797" xlink:href="#DejaVuSans-99"/>
      <use x="242.822266" xlink:href="#DejaVuSans-104"/>
      <use x="306.201172" xlink:href="#DejaVuSans-101"/>
      <use x="367.724609" xlink:href="#DejaVuSans-110"/>
     </g>
    </g>
   </g>
   <g id="matplotlib.axis_6">
    <g id="ytick_15">
     <g id="line2d_45">
      <g>
       <use style="stroke:#000000;stroke-width:0.8;" x="670.81489" xlink:href="#me98b71f6d7" y="294.118125"/>
      </g>
     </g>
     <g id="text_44">
      <!-- 0 -->
      <g transform="translate(657.45239 297.917344)scale(0.1 -0.1)">
       <use xlink:href="#DejaVuSans-48"/>
      </g>
     </g>
    </g>
    <g id="ytick_16">
     <g id="line2d_46">
      <g>
       <use style="stroke:#000000;stroke-width:0.8;" x="670.81489" xlink:href="#me98b71f6d7" y="255.289554"/>
      </g>
     </g>
     <g id="text_45">
      <!-- 50 -->
      <g transform="translate(651.08989 259.088772)scale(0.1 -0.1)">
       <use xlink:href="#DejaVuSans-53"/>
       <use x="63.623047" xlink:href="#DejaVuSans-48"/>
      </g>
     </g>
    </g>
    <g id="ytick_17">
     <g id="line2d_47">
      <g>
       <use style="stroke:#000000;stroke-width:0.8;" x="670.81489" xlink:href="#me98b71f6d7" y="216.460982"/>
      </g>
     </g>
     <g id="text_46">
      <!-- 100 -->
      <g transform="translate(644.72739 220.260201)scale(0.1 -0.1)">
       <use xlink:href="#DejaVuSans-49"/>
       <use x="63.623047" xlink:href="#DejaVuSans-48"/>
       <use x="127.246094" xlink:href="#DejaVuSans-48"/>
      </g>
     </g>
    </g>
    <g id="ytick_18">
     <g id="line2d_48">
      <g>
       <use style="stroke:#000000;stroke-width:0.8;" x="670.81489" xlink:href="#me98b71f6d7" y="177.632411"/>
      </g>
     </g>
     <g id="text_47">
      <!-- 150 -->
      <g transform="translate(644.72739 181.431629)scale(0.1 -0.1)">
       <use xlink:href="#DejaVuSans-49"/>
       <use x="63.623047" xlink:href="#DejaVuSans-53"/>
       <use x="127.246094" xlink:href="#DejaVuSans-48"/>
      </g>
     </g>
    </g>
    <g id="ytick_19">
     <g id="line2d_49">
      <g>
       <use style="stroke:#000000;stroke-width:0.8;" x="670.81489" xlink:href="#me98b71f6d7" y="138.803839"/>
      </g>
     </g>
     <g id="text_48">
      <!-- 200 -->
      <g transform="translate(644.72739 142.603058)scale(0.1 -0.1)">
       <use xlink:href="#DejaVuSans-50"/>
       <use x="63.623047" xlink:href="#DejaVuSans-48"/>
       <use x="127.246094" xlink:href="#DejaVuSans-48"/>
      </g>
     </g>
    </g>
    <g id="ytick_20">
     <g id="line2d_50">
      <g>
       <use style="stroke:#000000;stroke-width:0.8;" x="670.81489" xlink:href="#me98b71f6d7" y="99.975268"/>
      </g>
     </g>
     <g id="text_49">
      <!-- 250 -->
      <g transform="translate(644.72739 103.774487)scale(0.1 -0.1)">
       <use xlink:href="#DejaVuSans-50"/>
       <use x="63.623047" xlink:href="#DejaVuSans-53"/>
       <use x="127.246094" xlink:href="#DejaVuSans-48"/>
      </g>
     </g>
    </g>
    <g id="ytick_21">
     <g id="line2d_51">
      <g>
       <use style="stroke:#000000;stroke-width:0.8;" x="670.81489" xlink:href="#me98b71f6d7" y="61.146696"/>
      </g>
     </g>
     <g id="text_50">
      <!-- 300 -->
      <g transform="translate(644.72739 64.945915)scale(0.1 -0.1)">
       <use xlink:href="#DejaVuSans-51"/>
       <use x="63.623047" xlink:href="#DejaVuSans-48"/>
       <use x="127.246094" xlink:href="#DejaVuSans-48"/>
      </g>
     </g>
    </g>
    <g id="ytick_22">
     <g id="line2d_52">
      <g>
       <use style="stroke:#000000;stroke-width:0.8;" x="670.81489" xlink:href="#me98b71f6d7" y="22.318125"/>
      </g>
     </g>
     <g id="text_51">
      <!-- 350 -->
      <g transform="translate(644.72739 26.117344)scale(0.1 -0.1)">
       <use xlink:href="#DejaVuSans-51"/>
       <use x="63.623047" xlink:href="#DejaVuSans-53"/>
       <use x="127.246094" xlink:href="#DejaVuSans-48"/>
      </g>
     </g>
    </g>
    <g id="text_52">
     <!-- Score (c4*2.0 + c12 + c25*0.5) / Anzahl -->
     <g transform="translate(638.647702 259.201719)rotate(-90)scale(0.1 -0.1)">
      <defs>
       <path d="M 53.515625 70.515625 
L 53.515625 60.890625 
Q 47.90625 63.578125 42.921875 64.890625 
Q 37.9375 66.21875 33.296875 66.21875 
Q 25.25 66.21875 20.875 63.09375 
Q 16.5 59.96875 16.5 54.203125 
Q 16.5 49.359375 19.40625 46.890625 
Q 22.3125 44.4375 30.421875 42.921875 
L 36.375 41.703125 
Q 47.40625 39.59375 52.65625 34.296875 
Q 57.90625 29 57.90625 20.125 
Q 57.90625 9.515625 50.796875 4.046875 
Q 43.703125 -1.421875 29.984375 -1.421875 
Q 24.8125 -1.421875 18.96875 -0.25 
Q 13.140625 0.921875 6.890625 3.21875 
L 6.890625 13.375 
Q 12.890625 10.015625 18.65625 8.296875 
Q 24.421875 6.59375 29.984375 6.59375 
Q 38.421875 6.59375 43.015625 9.90625 
Q 47.609375 13.234375 47.609375 19.390625 
Q 47.609375 24.75 44.3125 27.78125 
Q 41.015625 30.8125 33.5 32.328125 
L 27.484375 33.5 
Q 16.453125 35.6875 11.515625 40.375 
Q 6.59375 45.0625 6.59375 53.421875 
Q 6.59375 63.09375 13.40625 68.65625 
Q 20.21875 74.21875 32.171875 74.21875 
Q 37.3125 74.21875 42.625 73.28125 
Q 47.953125 72.359375 53.515625 70.515625 
z
" id="DejaVuSans-83"/>
       <path d="M 31 75.875 
Q 24.46875 64.65625 21.28125 53.65625 
Q 18.109375 42.671875 18.109375 31.390625 
Q 18.109375 20.125 21.3125 9.0625 
Q 24.515625 -2 31 -13.1875 
L 23.1875 -13.1875 
Q 15.875 -1.703125 12.234375 9.375 
Q 8.59375 20.453125 8.59375 31.390625 
Q 8.59375 42.28125 12.203125 53.3125 
Q 15.828125 64.359375 23.1875 75.875 
z
" id="DejaVuSans-40"/>
       <path d="M 47.015625 60.890625 
L 29.5 51.421875 
L 47.015625 41.890625 
L 44.1875 37.109375 
L 27.78125 47.015625 
L 27.78125 28.609375 
L 22.21875 28.609375 
L 22.21875 47.015625 
L 5.8125 37.109375 
L 2.984375 41.890625 
L 20.515625 51.421875 
L 2.984375 60.890625 
L 5.8125 65.71875 
L 22.21875 55.8125 
L 22.21875 74.21875 
L 27.78125 74.21875 
L 27.78125 55.8125 
L 44.1875 65.71875 
z
" id="DejaVuSans-42"/>
       <path d="M 10.6875 12.40625 
L 21 12.40625 
L 21 0 
L 10.6875 0 
z
" id="DejaVuSans-46"/>
       <path d="M 46 62.703125 
L 46 35.5 
L 73.1875 35.5 
L 73.1875 27.203125 
L 46 27.203125 
L 46 0 
L 37.796875 0 
L 37.796875 27.203125 
L 10.59375 27.203125 
L 10.59375 35.5 
L 37.796875 35.5 
L 37.796875 62.703125 
z
" id="DejaVuSans-43"/>
       <path d="M 8.015625 75.875 
L 15.828125 75.875 
Q 23.140625 64.359375 26.78125 53.3125 
Q 30.421875 42.28125 30.421875 31.390625 
Q 30.421875 20.453125 26.78125 9.375 
Q 23.140625 -1.703125 15.828125 -13.1875 
L 8.015625 -13.1875 
Q 14.5 -2 17.703125 9.0625 
Q 20.90625 20.125 20.90625 31.390625 
Q 20.90625 42.671875 17.703125 53.65625 
Q 14.5 64.65625 8.015625 75.875 
z
" id="DejaVuSans-41"/>
       <path d="M 25.390625 72.90625 
L 33.6875 72.90625 
L 8.296875 -9.28125 
L 0 -9.28125 
z
" id="DejaVuSans-47"/>
       <path d="M 34.1875 63.1875 
L 20.796875 26.90625 
L 47.609375 26.90625 
z
M 28.609375 72.90625 
L 39.796875 72.90625 
L 67.578125 0 
L 57.328125 0 
L 50.6875 18.703125 
L 17.828125 18.703125 
L 11.1875 0 
L 0.78125 0 
z
" id="DejaVuSans-65"/>
       <path d="M 5.515625 54.6875 
L 48.1875 54.6875 
L 48.1875 46.484375 
L 14.40625 7.171875 
L 48.1875 7.171875 
L 48.1875 0 
L 4.296875 0 
L 4.296875 8.203125 
L 38.09375 47.515625 
L 5.515625 47.515625 
z
" id="DejaVuSans-122"/>
      </defs>
      <use xlink:href="#DejaVuSans-83"/>
      <use x="63.476562" xlink:href="#DejaVuSans-99"/>
      <use x="118.457031" xlink:href="#DejaVuSans-111"/>
      <use x="179.638672" xlink:href="#DejaVuSans-114"/>
      <use x="218.501953" xlink:href="#DejaVuSans-101"/>
      <use x="280.025391" xlink:href="#DejaVuSans-32"/>
      <use x="311.8125" xlink:href="#DejaVuSans-40"/>
      <use x="350.826172" xlink:href="#DejaVuSans-99"/>
      <use x="405.806641" xlink:href="#DejaVuSans-52"/>
      <use x="469.429688" xlink:href="#DejaVuSans-42"/>
      <use x="519.429688" xlink:href="#DejaVuSans-50"/>
      <use x="583.052734" xlink:href="#DejaVuSans-46"/>
      <use x="614.839844" xlink:href="#DejaVuSans-48"/>
      <use x="678.462891" xlink:href="#DejaVuSans-32"/>
      <use x="710.25" xlink:href="#DejaVuSans-43"/>
      <use x="794.039062" xlink:href="#DejaVuSans-32"/>
      <use x="825.826172" xlink:href="#DejaVuSans-99"/>
      <use x="880.806641" xlink:href="#DejaVuSans-49"/>
      <use x="944.429688" xlink:href="#DejaVuSans-50"/>
      <use x="1008.052734" xlink:href="#DejaVuSans-32"/>
      <use x="1039.839844" xlink:href="#DejaVuSans-43"/>
      <use x="1123.628906" xlink:href="#DejaVuSans-32"/>
      <use x="1155.416016" xlink:href="#DejaVuSans-99"/>
      <use x="1210.396484" xlink:href="#DejaVuSans-50"/>
      <use x="1274.019531" xlink:href="#DejaVuSans-53"/>
      <use x="1337.642578" xlink:href="#DejaVuSans-42"/>
      <use x="1387.642578" xlink:href="#DejaVuSans-48"/>
      <use x="1451.265625" xlink:href="#DejaVuSans-46"/>
      <use x="1483.052734" xlink:href="#DejaVuSans-53"/>
      <use x="1546.675781" xlink:href="#DejaVuSans-41"/>
      <use x="1585.689453" xlink:href="#DejaVuSans-32"/>
      <use x="1617.476562" xlink:href="#DejaVuSans-47"/>
      <use x="1651.167969" xlink:href="#DejaVuSans-32"/>
      <use x="1682.955078" xlink:href="#DejaVuSans-65"/>
      <use x="1751.363281" xlink:href="#DejaVuSans-110"/>
      <use x="1814.742188" xlink:href="#DejaVuSans-122"/>
      <use x="1867.232422" xlink:href="#DejaVuSans-97"/>
      <use x="1928.511719" xlink:href="#DejaVuSans-104"/>
      <use x="1991.890625" xlink:href="#DejaVuSans-108"/>
     </g>
    </g>
   </g>
   <g id="line2d_53">
    <path clip-path="url(#p9f053119f9)" d="M 682.750719 239.125094 
L 684.981715 218.052797 
L 687.212711 211.821013 
L 689.443707 203.418572 
L 691.674703 204.256045 
L 693.905699 196.974341 
L 696.136695 194.141712 
L 698.367691 192.556056 
L 700.598687 191.028899 
L 702.829683 191.124346 
L 705.060679 181.102381 
L 707.291675 179.368936 
L 709.522671 177.75249 
L 711.753667 175.150781 
L 713.984663 176.123728 
L 716.215659 173.654414 
L 718.446655 169.704128 
L 720.677651 167.798261 
L 722.908648 163.272213 
L 725.139644 167.268683 
L 727.37064 161.825109 
L 729.601636 160.1009 
L 731.832632 163.352265 
L 734.063628 155.787298 
L 736.294624 160.334899 
L 738.52562 154.213957 
L 740.756616 151.11346 
L 742.987612 150.571566 
L 745.218608 152.800722 
L 747.449604 146.384201 
L 749.6806 147.606542 
L 751.911596 149.093672 
L 754.142592 145.374307 
L 756.373588 143.376072 
L 758.604584 141.445574 
L 760.83558 143.493072 
L 763.066576 142.03981 
L 765.297572 140.478785 
L 767.528569 147.902121 
L 769.759565 154.611141 
L 771.990561 162.262319 
L 774.221557 144.650755 
L 776.452553 134.868948 
L 778.683549 132.344213 
L 780.914545 130.509162 
L 783.145541 131.44824 
L 785.376537 135.897316 
L 787.607533 131.91624 
L 789.838529 128.732611 
L 792.069525 129.191374 
L 794.300521 129.884137 
L 796.531517 132.498161 
L 798.762513 128.609453 
L 800.993509 129.788689 
L 803.224505 131.666846 
L 805.455501 127.999822 
L 807.686497 125.472009 
L 809.917494 123.055037 
L 812.14849 123.359853 
L 814.379486 124.729983 
L 816.610482 122.094406 
L 818.841478 122.753301 
L 821.072474 121.494012 
L 823.30347 132.011687 
L 825.534466 144.481413 
L 827.765462 126.318719 
L 829.996458 122.137512 
L 832.227454 116.327543 
L 834.45845 115.647096 
L 836.689446 116.472253 
L 838.920442 114.38165 
L 841.151438 115.259149 
L 843.382434 115.951912 
L 845.61343 116.013491 
L 847.844426 115.807201 
L 850.075422 119.295646 
L 852.306419 116.937174 
L 854.537415 117.546805 
L 856.768411 119.08012 
L 858.999407 117.543726 
L 861.230403 116.672385 
L 863.461399 118.328857 
L 865.692395 122.525459 
L 867.923391 117.629937 
L 870.154387 116.038122 
L 872.385383 116.971043 
L 874.616379 117.257384 
L 876.847375 134.496396 
L 879.078371 117.380542 
L 881.309367 112.069363 
L 883.540363 109.787865 
L 885.771359 108.882655 
L 888.002355 109.418391 
L 890.233351 110.114233 
L 892.464347 109.914101 
L 894.695344 110.539127 
L 896.92634 110.594548 
L 899.157336 111.210337 
L 901.388332 113.146993 
L 903.619328 110.302048 
L 905.850324 111.761468 
L 908.08132 108.858023 
L 910.312316 108.734865 
L 912.543312 109.486128 
L 914.774308 108.941155 
L 917.005304 108.611708 
L 919.2363 108.793365 
L 921.467296 108.790286 
" style="fill:none;stroke:#1f77b4;stroke-linecap:square;stroke-width:1.5;"/>
   </g>
   <g id="line2d_54">
    <path clip-path="url(#p9f053119f9)" d="M 682.750719 218.995057 
L 684.981715 210.711629 
L 687.212711 233.818035 
L 689.443707 278.940922 
L 691.674703 232.046907 
L 693.905699 201.311027 
L 696.136695 193.354576 
L 698.367691 194.226516 
L 700.598687 225.507358 
L 702.829683 204.253824 
L 705.060679 198.395478 
L 707.291675 189.403599 
L 709.522671 235.91614 
L 711.753667 245.452982 
L 713.984663 196.978576 
L 716.215659 184.498937 
L 718.446655 177.278185 
L 720.677651 188.558907 
L 722.908648 178.695087 
L 725.139644 207.523599 
L 727.37064 237.605523 
L 729.601636 176.733223 
L 731.832632 175.152832 
L 734.063628 186.842275 
L 736.294624 178.776832 
L 738.52562 184.17196 
L 740.756616 181.910366 
L 742.987612 172.264531 
L 745.218608 179.485283 
L 747.449604 169.022005 
L 749.6806 177.768651 
L 751.911596 168.80402 
L 754.142592 168.477042 
L 756.373588 168.558787 
L 758.604584 168.913012 
L 760.83558 177.795899 
L 763.066576 175.343569 
L 765.297572 174.389884 
L 767.528569 174.335388 
L 769.759565 175.806787 
L 771.990561 176.351749 
L 774.221557 171.883057 
L 776.452553 167.714095 
L 778.683549 165.289012 
L 780.914545 166.48793 
L 783.145541 194.417253 
L 785.376537 165.724982 
L 787.607533 167.659599 
L 789.838529 168.967508 
L 792.069525 169.648711 
L 794.300521 168.231809 
L 796.531517 171.528832 
L 798.762513 170.602396 
L 800.993509 185.425373 
L 803.224505 167.359869 
L 805.455501 165.125523 
L 807.686497 166.923899 
L 809.917494 163.626877 
L 812.14849 174.607869 
L 814.379486 169.457975 
L 816.610482 166.160952 
L 818.841478 164.226336 
L 821.072474 163.981102 
L 823.30347 176.215508 
L 825.534466 164.253584 
L 827.765462 166.733163 
L 829.996458 161.229042 
L 832.227454 164.035599 
L 834.45845 163.43614 
L 836.689446 161.147298 
L 838.920442 166.515178 
L 841.151438 163.87211 
L 843.382434 166.569674 
L 845.61343 165.970215 
L 847.844426 163.490636 
L 850.075422 162.318967 
L 852.306419 159.921133 
L 854.537415 159.130937 
L 856.768411 161.910245 
L 858.999407 161.964742 
L 861.230403 160.357102 
L 863.461399 160.738576 
L 865.692395 161.065554 
L 867.923391 159.948381 
L 870.154387 166.896651 
L 872.385383 163.136411 
L 874.616379 161.99199 
L 876.847375 163.817614 
L 879.078371 161.201794 
L 881.309367 160.084621 
L 883.540363 161.392531 
L 885.771359 161.365283 
L 888.002355 160.193614 
L 890.233351 161.283539 
L 892.464347 163.163659 
L 894.695344 161.69226 
L 896.92634 164.771298 
L 899.157336 162.019238 
L 901.388332 162.972922 
L 903.619328 164.253584 
L 905.850324 161.065554 
L 908.08132 160.874817 
L 910.312316 164.226336 
L 912.543312 157.468802 
L 914.774308 160.929313 
L 917.005304 161.365283 
L 919.2363 160.68408 
L 921.467296 158.122757 
" style="fill:none;stroke:#ff7f0e;stroke-linecap:square;stroke-width:1.5;"/>
   </g>
   <g id="patch_15">
    <path d="M 670.81489 294.118125 
L 670.81489 22.318125 
" style="fill:none;stroke:#000000;stroke-linecap:square;stroke-linejoin:miter;stroke-width:0.8;"/>
   </g>
   <g id="patch_16">
    <path d="M 933.403125 294.118125 
L 933.403125 22.318125 
" style="fill:none;stroke:#000000;stroke-linecap:square;stroke-linejoin:miter;stroke-width:0.8;"/>
   </g>
   <g id="patch_17">
    <path d="M 670.81489 294.118125 
L 933.403125 294.118125 
" style="fill:none;stroke:#000000;stroke-linecap:square;stroke-linejoin:miter;stroke-width:0.8;"/>
   </g>
   <g id="patch_18">
    <path d="M 670.81489 22.318125 
L 933.403125 22.318125 
" style="fill:none;stroke:#000000;stroke-linecap:square;stroke-linejoin:miter;stroke-width:0.8;"/>
   </g>
   <g id="text_53">
    <!-- Fehlerklassen -->
    <g transform="translate(761.104632 16.318125)scale(0.12 -0.12)">
     <use xlink:href="#DejaVuSans-70"/>
     <use x="52.019531" xlink:href="#DejaVuSans-101"/>
     <use x="113.542969" xlink:href="#DejaVuSans-104"/>
     <use x="176.921875" xlink:href="#DejaVuSans-108"/>
     <use x="204.705078" xlink:href="#DejaVuSans-101"/>
     <use x="266.228516" xlink:href="#DejaVuSans-114"/>
     <use x="307.341797" xlink:href="#DejaVuSans-107"/>
     <use x="365.251953" xlink:href="#DejaVuSans-108"/>
     <use x="393.035156" xlink:href="#DejaVuSans-97"/>
     <use x="454.314453" xlink:href="#DejaVuSans-115"/>
     <use x="506.414062" xlink:href="#DejaVuSans-115"/>
     <use x="558.513672" xlink:href="#DejaVuSans-101"/>
     <use x="620.037109" xlink:href="#DejaVuSans-110"/>
    </g>
   </g>
   <g id="legend_3">
    <g id="patch_19">
     <path d="M 845.021875 59.674375 
L 926.403125 59.674375 
Q 928.403125 59.674375 928.403125 57.674375 
L 928.403125 29.318125 
Q 928.403125 27.318125 926.403125 27.318125 
L 845.021875 27.318125 
Q 843.021875 27.318125 843.021875 29.318125 
L 843.021875 57.674375 
Q 843.021875 59.674375 845.021875 59.674375 
z
" style="fill:#ffffff;opacity:0.8;stroke:#cccccc;stroke-linejoin:miter;"/>
    </g>
    <g id="line2d_55">
     <path d="M 847.021875 35.416562 
L 867.021875 35.416562 
" style="fill:none;stroke:#1f77b4;stroke-linecap:square;stroke-width:1.5;"/>
    </g>
    <g id="line2d_56"/>
    <g id="text_54">
     <!-- Trainig -->
     <g transform="translate(875.021875 38.916562)scale(0.1 -0.1)">
      <use xlink:href="#DejaVuSans-84"/>
      <use x="46.333984" xlink:href="#DejaVuSans-114"/>
      <use x="87.447266" xlink:href="#DejaVuSans-97"/>
      <use x="148.726562" xlink:href="#DejaVuSans-105"/>
      <use x="176.509766" xlink:href="#DejaVuSans-110"/>
      <use x="239.888672" xlink:href="#DejaVuSans-105"/>
      <use x="267.671875" xlink:href="#DejaVuSans-103"/>
     </g>
    </g>
    <g id="line2d_57">
     <path d="M 847.021875 50.094688 
L 867.021875 50.094688 
" style="fill:none;stroke:#ff7f0e;stroke-linecap:square;stroke-width:1.5;"/>
    </g>
    <g id="line2d_58"/>
    <g id="text_55">
     <!-- Validation -->
     <g transform="translate(875.021875 53.594688)scale(0.1 -0.1)">
      <use xlink:href="#DejaVuSans-86"/>
      <use x="60.658203" xlink:href="#DejaVuSans-97"/>
      <use x="121.9375" xlink:href="#DejaVuSans-108"/>
      <use x="149.720703" xlink:href="#DejaVuSans-105"/>
      <use x="177.503906" xlink:href="#DejaVuSans-100"/>
      <use x="240.980469" xlink:href="#DejaVuSans-97"/>
      <use x="302.259766" xlink:href="#DejaVuSans-116"/>
      <use x="341.46875" xlink:href="#DejaVuSans-105"/>
      <use x="369.251953" xlink:href="#DejaVuSans-111"/>
      <use x="430.433594" xlink:href="#DejaVuSans-110"/>
     </g>
    </g>
   </g>
  </g>
 </g>
 <defs>
  <clipPath id="p8684e84867">
   <rect height="271.8" width="262.588235" x="40.603125" y="22.318125"/>
  </clipPath>
  <clipPath id="p01c709d1fb">
   <rect height="271.8" width="262.588235" x="355.709007" y="22.318125"/>
  </clipPath>
  <clipPath id="p9f053119f9">
   <rect height="271.8" width="262.588235" x="670.81489" y="22.318125"/>
  </clipPath>
 </defs>
</svg>
